<?xml version="1.0" standalone="no"?>
<!DOCTYPE svg PUBLIC "-//W3C//DTD SVG 1.1//EN"
  "http://www.w3.org/Graphics/SVG/1.1/DTD/svg11.dtd">
<svg width="216" height="279" version="1.1"
  xmlns="http://www.w3.org/2000/svg">
<g transform="translate( 41, 73)" >
<text x="0" y="-30" font-size="8"><tspan x="0" dy="0em">A set of cosine waves</tspan></text><text x="0" y="-10" font-size="8"><tspan x="0" dy="0em">(42.62, -118.78) to (42.79, -118.50): Looking north</tspan></text><line x1="5.25" y1="32.6874047350128" x2="127.75" y2="32.6874047350128" style="stroke:#007299;fill:none;stroke-width:0.5;"/>
<line x1="5.25" y1="40.2013147938989" x2="127.75" y2="40.2013147938989" style="stroke:#007299;fill:none;stroke-width:0.5;"/>
<line x1="5.25" y1="47.7152248527849" x2="127.75" y2="47.7152248527849" style="stroke:#007299;fill:none;stroke-width:0.5;"/>
<line x1="5.25" y1="55.2291349116709" x2="127.75" y2="55.2291349116709" style="stroke:#007299;fill:none;stroke-width:0.5;"/>
<line x1="5.25" y1="62.743044970557" x2="127.75" y2="62.743044970557" style="stroke:#007299;fill:none;stroke-width:0.5;"/>
<line x1="5.25" y1="70.256955029443" x2="127.75" y2="70.256955029443" style="stroke:#007299;fill:none;stroke-width:0.5;"/>
<line x1="5.25" y1="77.7708650883291" x2="127.75" y2="77.7708650883291" style="stroke:#007299;fill:none;stroke-width:0.5;"/>
<line x1="5.25" y1="85.2847751472151" x2="127.75" y2="85.2847751472151" style="stroke:#007299;fill:none;stroke-width:0.5;"/>
<line x1="5.25" y1="92.7986852061011" x2="127.75" y2="92.7986852061011" style="stroke:#007299;fill:none;stroke-width:0.5;"/>
<line x1="5.25" y1="100.312595264987" x2="127.75" y2="100.312595264987" style="stroke:#007299;fill:none;stroke-width:0.5;"/>
<polygon points="0,0 133,0 133,133 0,133" style="stroke:#7f3f00;fill:none;stroke-width:0.5;"/>
<polyline points="5.25,32.6874047350128 12.5,24.5922349870311 15.9838709677419,22.6734946761264 19.4677419354839,20.7547543652217 22.9516129032258,19.1281248732283 26.4354838709677,18.0412457948704 29.9193548387097,17.659584617241 33.4032258064516,18.0412457948694 36.8870967741936,19.1281248732288 40.3709677419355,20.7547543652225 43.8548387096774,22.6734946761273 47.3387096774194,24.5922349870319 50.8225806451613,26.2188644790253 54.3064516129032,27.3057435573833 57.7903225806452,27.6874047350126 61.2741935483871,27.3057435573842 64.758064516129,26.2188644790247 68.241935483871,24.5922349870309 71.7258064516129,22.6734946761262 75.2096774193548,20.7547543652216 78.6935483870968,19.1281248732282 82.1774193548387,18.0412457948702 85.6612903225806,17.6595846172409 89.1451612903226,18.0412457948694 92.6290322580645,19.128124873229 96.1129032258064,20.7547543652227 99.5967741935484,22.6734946761275 103.08064516129,24.5922349870321 106.564516129032,26.2188644790254 110.048387096774,27.3057435573834 113.532258064516,27.6874047350127 117.016129032258,27.3057435573841 120.5,26.2188644790245 127.75,32.6874047350128" style="stroke:#7f3f00;fill:white;stroke-width:0.5;"/>
<polyline points="5.25,40.2013147938989 12.5,35.2013147938989 15.9838709677419,34.8196536162699 19.4677419354839,33.7327745379099 22.9516129032258,32.106145045916 26.4354838709677,30.1874047350143 29.9193548387097,28.2686644241096 33.4032258064516,26.6420349321157 36.8870967741936,25.5551558537557 40.3709677419355,25.1734946761268 43.8548387096774,25.5551558537558 47.3387096774194,26.6420349321158 50.8225806451613,28.2686644241098 54.3064516129032,30.1874047350114 57.7903225806452,32.1061450459162 61.2741935483871,33.7327745379101 64.758064516129,34.81965361627 68.241935483871,35.2013147938988 71.7258064516129,34.8196536162698 75.2096774193548,33.7327745379097 78.6935483870968,32.1061450459158 82.1774193548387,30.1874047350141 85.6612903225806,28.2686644241094 89.1451612903226,26.6420349321155 92.6290322580645,25.5551558537556 96.1129032258064,25.1734946761268 99.5967741935484,25.5551558537559 103.08064516129,26.642034932116 106.564516129032,28.2686644241099 110.048387096774,30.1874047350116 113.532258064516,32.1061450459164 117.016129032258,33.7327745379102 120.5,34.8196536162701 127.75,40.2013147938989" style="stroke:#7f3f00;fill:white;stroke-width:0.5;"/>
<polyline points="5.25,47.7152248527849 12.5,39.6200551048032 15.9838709677419,41.2466845967968 19.4677419354839,42.3335636751563 22.9516129032258,42.7152248527847 26.4354838709677,42.3335636751564 29.9193548387097,41.2466845967972 33.4032258064516,39.6200551048038 36.8870967741936,37.7013147938992 40.3709677419355,35.7825744829944 43.8548387096774,34.1559449910008 47.3387096774194,33.0690659126414 50.8225806451613,32.6874047350131 54.3064516129032,33.0690659126413 57.7903225806452,34.1559449910005 61.2741935483871,35.782574482994 64.758064516129,37.7013147938987 68.241935483871,39.6200551048034 71.7258064516129,41.246684596797 75.2096774193548,42.3335636751563 78.6935483870968,42.7152248527846 82.1774193548387,42.3335636751564 85.6612903225806,41.2466845967971 89.1451612903226,39.6200551048036 92.6290322580645,37.701314793899 96.1129032258064,35.7825744829942 99.5967741935484,34.1559449910007 103.08064516129,33.0690659126414 106.564516129032,32.6874047350131 110.048387096774,33.0690659126413 113.532258064516,34.1559449910006 117.016129032258,35.7825744829941 120.5,37.7013147938989 127.75,47.7152248527849" style="stroke:#7f3f00;fill:white;stroke-width:0.5;"/>
<polyline points="5.25,55.2291349116709 12.5,41.6698550498871 15.9838709677419,43.2964845418809 19.4677419354839,45.2152248527857 22.9516129032258,47.1339651636903 26.4354838709677,48.7605946556814 29.9193548387097,49.8474737340416 33.4032258064516,50.2291349116708 36.8870967741936,49.8474737340422 40.3709677419355,48.7605946556826 43.8548387096774,47.1339651636888 47.3387096774194,45.215224852784 50.8225806451613,43.2964845418794 54.3064516129032,41.6698550498883 57.7903225806452,40.5829759715282 61.2741935483871,40.201314793899 64.758064516129,40.5829759715276 68.241935483871,41.6698550498873 71.7258064516129,43.2964845418811 75.2096774193548,45.2152248527859 78.6935483870968,47.1339651636904 82.1774193548387,48.7605946556816 85.6612903225806,49.8474737340417 89.1451612903226,50.2291349116708 92.6290322580645,49.8474737340422 96.1129032258064,48.7605946556824 99.5967741935484,47.1339651636886 103.08064516129,45.2152248527838 106.564516129032,43.2964845418793 110.048387096774,41.6698550498882 113.532258064516,40.5829759715281 117.016129032258,40.2013147938989 120.5,40.5829759715276 127.75,55.2291349116709" style="stroke:#7f3f00;fill:white;stroke-width:0.5;"/>
<polyline points="5.25,62.743044970557 12.5,48.0968860304137 15.9838709677419,47.715224852785 19.4677419354839,48.0968860304141 22.9516129032258,49.1837651087742 26.4354838709677,50.8103946007653 29.9193548387097,52.7291349116698 33.4032258064516,54.6478752225746 36.8870967741936,56.2745047145684 40.3709677419355,57.3613837929282 43.8548387096774,57.7430449705569 47.3387096774194,57.3613837929277 50.8225806451613,56.2745047145676 54.3064516129032,54.6478752225765 57.7903225806452,52.7291349116719 61.2741935483871,50.8103946007672 64.758064516129,49.1837651087734 68.241935483871,48.0968860304136 71.7258064516129,47.715224852785 75.2096774193548,48.0968860304142 78.6935483870968,49.1837651087744 82.1774193548387,50.8103946007655 85.6612903225806,52.72913491167 89.1451612903226,54.6478752225748 92.6290322580645,56.2745047145686 96.1129032258064,57.3613837929283 99.5967741935484,57.7430449705568 103.08064516129,57.3613837929276 106.564516129032,56.2745047145674 110.048387096774,54.6478752225763 113.532258064516,52.7291349116717 117.016129032258,50.810394600767 120.5,49.1837651087732 127.75,62.743044970557" style="stroke:#7f3f00;fill:white;stroke-width:0.5;"/>
<polyline points="5.25,70.256955029443 12.5,60.243044970557 15.9838709677419,58.3243046596523 19.4677419354839,56.6976751676588 22.9516129032258,55.6107960892995 26.4354838709677,55.2291349116712 29.9193548387097,55.6107960892995 33.4032258064516,56.6976751676588 36.8870967741936,58.3243046596524 40.3709677419355,60.2430449705571 43.8548387096774,62.1617852814618 47.3387096774194,63.7884147734552 50.8225806451613,64.8752938518145 54.3064516129032,65.2569550294427 57.7903225806452,64.8752938518144 61.2741935483871,63.7884147734551 64.758064516129,62.1617852814615 68.241935483871,60.2430449705568 71.7258064516129,58.3243046596521 75.2096774193548,56.6976751676587 78.6935483870968,55.6107960892994 82.1774193548387,55.2291349116712 85.6612903225806,55.6107960892995 89.1451612903226,56.6976751676589 92.6290322580645,58.3243046596525 96.1129032258064,60.2430449705573 99.5967741935484,62.1617852814619 103.08064516129,63.7884147734554 106.564516129032,64.8752938518145 110.048387096774,65.2569550294428 113.532258064516,64.8752938518144 117.016129032258,63.788414773455 120.5,62.1617852814613 127.75,70.256955029443" style="stroke:#7f3f00;fill:white;stroke-width:0.5;"/>
<polyline points="5.25,77.7708650883291 12.5,72.3892039107003 15.9838709677419,71.3023248323404 19.4677419354839,69.6756953403466 22.9516129032258,67.7569550294418 26.4354838709677,65.8382147185402 29.9193548387097,64.2115852265462 33.4032258064516,63.1247061481861 36.8870967741936,62.743044970557 40.3709677419355,63.1247061481858 43.8548387096774,64.2115852265457 47.3387096774194,65.8382147185395 50.8225806451613,67.7569550294443 54.3064516129032,69.675695340346 57.7903225806452,71.3023248323399 61.2741935483871,72.3892039106999 64.758064516129,72.770865088329 68.241935483871,72.3892039107002 71.7258064516129,71.3023248323403 75.2096774193548,69.6756953403464 78.6935483870968,67.7569550294416 82.1774193548387,65.83821471854 85.6612903225806,64.211585226546 89.1451612903226,63.124706148186 92.6290322580645,62.743044970557 96.1129032258064,63.1247061481859 99.5967741935484,64.2115852265458 103.08064516129,65.8382147185398 106.564516129032,67.7569550294445 110.048387096774,69.6756953403462 113.532258064516,71.3023248323401 117.016129032258,72.3892039107001 120.5,72.7708650883291 127.75,77.7708650883291" style="stroke:#7f3f00;fill:white;stroke-width:0.5;"/>
<polyline points="5.25,85.2847751472151 12.5,78.8162348912268 15.9838709677419,79.9031139695864 19.4677419354839,80.2847751472149 22.9516129032258,79.9031139695857 26.4354838709677,78.8162348912277 29.9193548387097,77.1896053992344 33.4032258064516,75.2708650883298 36.8870967741936,73.352124777425 40.3709677419355,71.7254952854312 43.8548387096774,70.6386162070717 47.3387096774194,70.2569550294432 50.8225806451613,70.6386162070725 54.3064516129032,71.7254952854305 57.7903225806452,73.3521247774239 61.2741935483871,75.2708650883285 64.758064516129,77.1896053992332 68.241935483871,78.8162348912269 71.7258064516129,79.9031139695865 75.2096774193548,80.2847751472149 78.6935483870968,79.9031139695855 82.1774193548387,78.8162348912276 85.6612903225806,77.1896053992342 89.1451612903226,75.2708650883296 92.6290322580645,73.3521247774248 96.1129032258064,71.7254952854311 99.5967741935484,70.6386162070716 103.08064516129,70.2569550294432 106.564516129032,70.6386162070726 110.048387096774,71.7254952854306 113.532258064516,73.352124777424 117.016129032258,75.2708650883287 120.5,77.1896053992334 127.75,85.2847751472151" style="stroke:#7f3f00;fill:white;stroke-width:0.5;"/>
<polyline points="5.25,92.7986852061011 12.5,80.8660348363107 15.9838709677419,82.7847751472155 19.4677419354839,84.7035154581201 22.9516129032258,86.3301449501135 26.4354838709677,87.4170240284715 29.9193548387097,87.7986852061009 33.4032258064516,87.4170240284725 36.8870967741936,86.330144950113 40.3709677419355,84.7035154581194 43.8548387096774,82.7847751472146 47.3387096774194,80.86603483631 50.8225806451613,79.2394053443166 54.3064516129032,78.1525262659586 57.7903225806452,77.7708650883293 61.2741935483871,78.1525262659577 64.758064516129,79.2394053443172 68.241935483871,80.8660348363109 71.7258064516129,82.7847751472157 75.2096774193548,84.7035154581203 78.6935483870968,86.3301449501136 82.1774193548387,87.4170240284716 85.6612903225806,87.798685206101 89.1451612903226,87.4170240284725 92.6290322580645,86.3301449501129 96.1129032258064,84.7035154581192 99.5967741935484,82.7847751472144 103.08064516129,80.8660348363098 106.564516129032,79.2394053443165 110.048387096774,78.1525262659585 113.532258064516,77.7708650883292 117.016129032258,78.1525262659577 120.5,79.2394053443173 127.75,92.7986852061011" style="stroke:#7f3f00;fill:white;stroke-width:0.5;"/>
<polyline points="5.25,100.312595264987 12.5,85.2847751472151 15.9838709677419,85.6664363248441 19.4677419354839,86.7533154032041 22.9516129032258,88.379944895198 26.4354838709677,90.2986852060996 29.9193548387097,92.2174255170044 33.4032258064516,93.8440550089983 36.8870967741936,94.9309340873582 40.3709677419355,95.3125952649872 43.8548387096774,94.9309340873581 47.3387096774194,93.8440550089981 50.8225806451613,92.2174255170042 54.3064516129032,90.2986852061025 57.7903225806452,88.3799448951978 61.2741935483871,86.7533154032039 64.758064516129,85.666436324844 68.241935483871,85.2847751472151 71.7258064516129,85.6664363248442 75.2096774193548,86.7533154032042 78.6935483870968,88.3799448951982 82.1774193548387,90.2986852060998 85.6612903225806,92.2174255170046 89.1451612903226,93.8440550089985 92.6290322580645,94.9309340873584 96.1129032258064,95.3125952649871 99.5967741935484,94.930934087358 103.08064516129,93.844055008998 106.564516129032,92.217425517004 110.048387096774,90.2986852061023 113.532258064516,88.3799448951976 117.016129032258,86.7533154032037 120.5,85.6664363248439 127.75,100.312595264987" style="stroke:#7f3f00;fill:white;stroke-width:0.5;"/>
</g>
</svg>