<?xml version="1.0" standalone="no"?>
<!DOCTYPE svg PUBLIC "-//W3C//DTD SVG 1.1//EN"
  "http://www.w3.org/Graphics/SVG/1.1/DTD/svg11.dtd">
<svg width="216" height="279" version="1.1"
  xmlns="http://www.w3.org/2000/svg">
<g transform="translate( 41, 73)" >
<text x="0" y="-30" font-size="8"><tspan x="0" dy="0em">Mt. Fuji</tspan></text><text x="0" y="-10" font-size="8"><tspan x="0" dy="0em">(35.30, 138.63) to (35.42, 138.85): Looking north</tspan></text><line x1="5.25" y1="29.8760126950361" x2="127.75" y2="29.8760126950361" style="stroke:#007299;fill:none;stroke-width:0.5;"/>
<line x1="5.25" y1="34.7592110023646" x2="127.75" y2="34.7592110023646" style="stroke:#007299;fill:none;stroke-width:0.5;"/>
<line x1="5.25" y1="39.6424093096932" x2="127.75" y2="39.6424093096932" style="stroke:#007299;fill:none;stroke-width:0.5;"/>
<line x1="5.25" y1="44.5256076170217" x2="127.75" y2="44.5256076170217" style="stroke:#007299;fill:none;stroke-width:0.5;"/>
<line x1="5.25" y1="49.4088059243502" x2="127.75" y2="49.4088059243502" style="stroke:#007299;fill:none;stroke-width:0.5;"/>
<line x1="5.25" y1="54.2920042316787" x2="127.75" y2="54.2920042316787" style="stroke:#007299;fill:none;stroke-width:0.5;"/>
<line x1="5.25" y1="59.1752025390072" x2="127.75" y2="59.1752025390072" style="stroke:#007299;fill:none;stroke-width:0.5;"/>
<line x1="5.25" y1="64.0584008463357" x2="127.75" y2="64.0584008463357" style="stroke:#007299;fill:none;stroke-width:0.5;"/>
<line x1="5.25" y1="68.9415991536643" x2="127.75" y2="68.9415991536643" style="stroke:#007299;fill:none;stroke-width:0.5;"/>
<line x1="5.25" y1="73.8247974609928" x2="127.75" y2="73.8247974609928" style="stroke:#007299;fill:none;stroke-width:0.5;"/>
<line x1="5.25" y1="78.7079957683213" x2="127.75" y2="78.7079957683213" style="stroke:#007299;fill:none;stroke-width:0.5;"/>
<line x1="5.25" y1="83.5911940756498" x2="127.75" y2="83.5911940756498" style="stroke:#007299;fill:none;stroke-width:0.5;"/>
<line x1="5.25" y1="88.4743923829783" x2="127.75" y2="88.4743923829783" style="stroke:#007299;fill:none;stroke-width:0.5;"/>
<line x1="5.25" y1="93.3575906903068" x2="127.75" y2="93.3575906903068" style="stroke:#007299;fill:none;stroke-width:0.5;"/>
<line x1="5.25" y1="98.2407889976353" x2="127.75" y2="98.2407889976353" style="stroke:#007299;fill:none;stroke-width:0.5;"/>
<line x1="5.25" y1="103.123987304964" x2="127.75" y2="103.123987304964" style="stroke:#007299;fill:none;stroke-width:0.5;"/>
<polygon points="0,0 133,0 133,133 0,133" style="stroke:#7f3f00;fill:none;stroke-width:0.5;"/>
<polyline points="5.25,29.8760126950361 12.5,24.8760126950361 14.7040816326531,24.4353604601129 16.9081632653061,24.1110730671987 19.1122448979592,23.9165021379667 21.3163265306122,23.6351627101581 23.5204081632653,23.3325729340204 25.7244897959184,23.1223055171466 27.9285714285714,22.8314819853496 30.1326530612245,22.5309193131422 32.3367346938775,22.1973408713519 34.5408163265306,21.9754293681294 36.7448979591837,21.3505650858395 38.9489795918367,20.9810287204181 41.1530612244898,20.7426635128213 43.3571428571429,20.4723846286592 45.5612244897959,20.1472001862675 47.765306122449,19.7212732997491 49.969387755102,19.3941728253304 52.1734693877551,19.3653275205353 54.3775510204082,19.3114059370379 56.5816326530612,19.317124363986 58.7857142857143,19.2652923033359 60.9897959183673,18.9940117089039 63.1938775510204,18.7403499868663 65.3979591836735,18.550076560479 67.6020408163265,18.4120459764112 69.8061224489796,18.1938797822825 72.0102040816327,18.039201247395 74.2142857142857,18.2465779671243 76.4183673469388,18.1205399931245 78.6224489795918,18.1088209412113 80.8265306122449,18.4307986660464 83.030612244898,18.9546544786081 85.234693877551,19.2452141939584 87.4387755102041,19.4248419266131 89.6428571428571,19.6809527936635 91.8469387755102,19.9675244096477 94.0510204081633,20.3677018519223 96.2551020408163,20.5986909459583 98.4591836734694,21.1994458488947 100.663265306122,21.3738910868283 102.867346938775,21.5401968291106 105.071428571429,21.6611059775792 107.275510204082,21.8696227273688 109.479591836735,22.5326211049396 111.683673469388,22.9174878190061 113.887755102041,23.1073200178805 116.091836734694,23.2949121626481 118.295918367347,23.3601491668478 120.5,23.5424775241502 127.75,29.8760126950361" style="stroke:#7f3f00;fill:white;stroke-width:0.5;"/>
<polyline points="5.25,34.7592110023646 12.5,29.1189672576258 14.7040816326531,28.810391275336 16.9081632653061,28.5989901970095 19.1122448979592,28.2785940703717 21.3163265306122,27.9796326789475 23.5204081632653,27.6838162432248 25.7244897959184,27.4530490714125 27.9285714285714,27.1230846947341 30.1326530612245,26.9499845877269 32.3367346938775,26.4768777802419 34.5408163265306,26.0759465440073 36.7448979591837,25.6537216262058 38.9489795918367,25.0933422595511 41.1530612244898,24.7390455809873 43.3571428571429,24.3698970694891 45.5612244897959,23.9105572017421 47.765306122449,23.6151285211474 49.969387755102,23.2601445470361 52.1734693877551,22.9613555918643 54.3775510204082,22.8249586444224 56.5816326530612,22.8547925254561 58.7857142857143,22.856506750937 60.9897959183673,22.7713574327306 63.1938775510204,22.7642456815411 65.3979591836735,22.4769845562652 67.6020408163265,22.0575330000348 69.8061224489796,22.0581646339656 72.0102040816327,22.2407800573351 74.2142857142857,22.0747743773863 76.4183673469388,22.6044545428338 78.6224489795918,22.5994073431686 80.8265306122449,22.9054793748196 83.030612244898,23.0501442167869 85.234693877551,23.4877743623241 87.4387755102041,23.7900768272165 89.6428571428571,24.0680287155938 91.8469387755102,24.6543503545535 94.0510204081633,25.0835819997021 96.2551020408163,25.2308854378284 98.4591836734694,25.617345104296 100.663265306122,25.8508652918941 102.867346938775,26.0336405857184 105.071428571429,26.3748151506825 107.275510204082,26.7755683883905 109.479591836735,27.201006164438 111.683673469388,27.4261288016612 113.887755102041,27.7247116932862 116.091836734694,27.9320932004055 118.295918367347,28.1816187330774 120.5,28.3603470778197 127.75,34.7592110023646" style="stroke:#7f3f00;fill:white;stroke-width:0.5;"/>
<polyline points="5.25,39.6424093096932 12.5,33.5103348950386 14.7040816326531,33.3344381716675 16.9081632653061,32.964083543355 19.1122448979592,32.5975367136549 21.3163265306122,32.3710850007377 23.5204081632653,31.932613711566 25.7244897959184,31.6402873333432 27.9285714285714,31.3185617236039 30.1326530612245,30.8837142591359 32.3367346938775,30.5542964502663 34.5408163265306,30.1638838648579 36.7448979591837,29.5943224187021 38.9489795918367,29.4168446795489 41.1530612244898,28.7669471298855 43.3571428571429,28.4095833003817 45.5612244897959,28.0752654478665 47.765306122449,27.4126332094561 49.969387755102,26.8502771312654 52.1734693877551,26.4212443699367 54.3775510204082,26.1747968212717 56.5816326530612,25.897195206367 58.7857142857143,26.118237062783 60.9897959183673,26.3195968977516 63.1938775510204,26.3470637759684 65.3979591836735,26.0552588304017 67.6020408163265,26.0345261392115 69.8061224489796,25.8659003829488 72.0102040816327,26.0945161085147 74.2142857142857,26.2225837437685 76.4183673469388,26.2973003584911 78.6224489795918,26.6413344511203 80.8265306122449,27.0846217382369 83.030612244898,27.479653311605 85.234693877551,27.9668423549097 87.4387755102041,28.4182664799378 89.6428571428571,28.8242618189457 91.8469387755102,29.1246501831571 94.0510204081633,29.4409964835133 96.2551020408163,29.7960494637219 98.4591836734694,30.0328138025691 100.663265306122,30.4127844698087 102.867346938775,30.8245932667894 105.071428571429,31.17003541913 107.275510204082,31.4972403865224 109.479591836735,31.7799774162085 111.683673469388,32.0772289800941 113.887755102041,32.3231631953883 116.091836734694,32.6489226803078 118.295918367347,32.8935371968123 120.5,33.2255196945899 127.75,39.6424093096932" style="stroke:#7f3f00;fill:white;stroke-width:0.5;"/>
<polyline points="5.25,44.5256076170217 12.5,38.0238884759038 14.7040816326531,37.8102998992585 16.9081632653061,37.4626175361748 19.1122448979592,37.132582039389 21.3163265306122,36.7649151845899 23.5204081632653,36.3518790399064 25.7244897959184,36.0023140934528 27.9285714285714,35.6595067447858 30.1326530612245,35.1509361212008 32.3367346938775,34.6734167320558 34.5408163265306,34.2063532087093 36.7448979591837,33.7388957439249 38.9489795918367,33.3060895757868 41.1530612244898,33.1662707612466 43.3571428571429,32.6707728698922 45.5612244897959,32.050433580714 47.765306122449,31.2387110058202 49.969387755102,30.8619055512227 52.1734693877551,30.809112601433 54.3775510204082,30.4266069141382 56.5816326530612,30.0783264636234 58.7857142857143,29.5231248693036 60.9897959183673,29.5094954307611 63.1938775510204,29.2578585615912 65.3979591836735,29.4252637035809 67.6020408163265,29.2422013895331 69.8061224489796,29.3145736353575 72.0102040816327,29.2181775766931 74.2142857142857,29.6748833308635 76.4183673469388,30.123502534457 78.6224489795918,30.6100810104481 80.8265306122449,30.9835703672378 83.030612244898,31.7620685167804 85.234693877551,31.9801163681565 87.4387755102041,32.3029715023877 89.6428571428571,32.6933953438993 91.8469387755102,33.1501164913639 94.0510204081633,33.6245727690625 96.2551020408163,34.1538865586703 98.4591836734694,34.6121947805577 100.663265306122,35.0444557240445 102.867346938775,35.3610609571781 105.071428571429,35.7684722519081 107.275510204082,35.9604783424951 109.479591836735,36.294782995891 111.683673469388,36.7113773299097 113.887755102041,37.0034635654938 116.091836734694,37.342475229845 118.295918367347,37.575536869616 120.5,37.7990822460164 127.75,44.5256076170217" style="stroke:#7f3f00;fill:white;stroke-width:0.5;"/>
<polyline points="5.25,49.4088059243502 12.5,42.8478603777206 14.7040816326531,42.5095441807564 16.9081632653061,42.0114195011739 19.1122448979592,41.5640601642958 21.3163265306122,41.2761076765796 23.5204081632653,40.6976558117848 25.7244897959184,40.3339471579051 27.9285714285714,40.113915579225 30.1326530612245,39.5840977413469 32.3367346938775,38.8914329725539 34.5408163265306,38.3296305633112 36.7448979591837,38.1672291808051 38.9489795918367,37.7722645957714 41.1530612244898,37.1636110025631 43.3571428571429,36.570230628818 45.5612244897959,35.3354637977238 47.765306122449,34.797355490038 49.969387755102,34.2288615436163 52.1734693877551,33.5855736059108 54.3775510204082,33.0789563459761 56.5816326530612,33.2465021625065 58.7857142857143,32.6232838813054 60.9897959183673,32.0690727137225 63.1938775510204,31.7415213894633 65.3979591836735,32.360536640169 67.6020408163265,32.1137686685274 69.8061224489796,32.0456593959574 72.0102040816327,32.2129791190248 74.2142857142857,32.8669690676328 76.4183673469388,33.8070142103527 78.6224489795918,34.5372573321238 80.8265306122449,34.7747892508238 83.030612244898,35.1197237527781 85.234693877551,35.2730507136181 87.4387755102041,36.2709436923095 89.6428571428571,36.8987675817662 91.8469387755102,37.6399362296884 94.0510204081633,38.297849909085 96.2551020408163,38.7020778685222 98.4591836734694,38.9956268640427 100.663265306122,39.5201981490736 102.867346938775,39.8580430695028 105.071428571429,40.267945687828 107.275510204082,40.7282724768958 109.479591836735,41.2024862205918 111.683673469388,41.5025597901454 113.887755102041,41.7426123184512 116.091836734694,41.9052179721602 118.295918367347,42.2056087434879 120.5,42.4005865125414 127.75,49.4088059243502" style="stroke:#7f3f00;fill:white;stroke-width:0.5;"/>
<polyline points="5.25,54.2920042316787 12.5,47.1343861084926 14.7040816326531,46.7836890139682 16.9081632653061,46.3765175341696 19.1122448979592,46.07600138976 21.3163265306122,45.5420304765386 23.5204081632653,45.1381977783687 25.7244897959184,44.735265772627 27.9285714285714,44.4659954669422 30.1326530612245,43.8712157360531 32.3367346938775,43.2989219023936 34.5408163265306,42.6244943290868 36.7448979591837,41.9221260953997 38.9489795918367,41.2935503903926 41.1530612244898,40.6519266913294 43.3571428571429,39.6087504013989 45.5612244897959,38.7849131222129 47.765306122449,38.0095613277746 49.969387755102,37.1461051615974 52.1734693877551,35.9349726697984 54.3775510204082,35.229124372623 56.5816326530612,34.5049462201641 58.7857142857143,34.4822648542441 60.9897959183673,33.8623926748567 63.1938775510204,33.951168899744 65.3979591836735,34.2925973315599 67.6020408163265,35.0054448282687 69.8061224489796,34.5598349557175 72.0102040816327,34.5995419987584 74.2142857142857,35.6047833396657 76.4183673469388,36.8366951441337 78.6224489795918,38.0870521461341 80.8265306122449,38.9894761185975 83.030612244898,39.8079462787677 85.234693877551,40.54591035541 87.4387755102041,41.1325296974248 89.6428571428571,41.7929780762587 91.8469387755102,42.4230777573589 94.0510204081633,43.0406295001752 96.2551020408163,43.5640976822295 98.4591836734694,43.8801446750781 100.663265306122,44.3217066998191 102.867346938775,44.7761023923056 105.071428571429,45.1264987599467 107.275510204082,45.4195347781093 109.479591836735,45.7758125301007 111.683673469388,45.94923787869 113.887755102041,46.3511153269909 116.091836734694,46.6718701617033 118.295918367347,46.7720864855704 120.5,47.1122175369834 127.75,54.2920042316787" style="stroke:#7f3f00;fill:white;stroke-width:0.5;"/>
<polyline points="5.25,59.1752025390072 12.5,51.8120581257984 14.7040816326531,51.3930376054693 16.9081632653061,50.8849594369206 19.1122448979592,50.4533713237374 21.3163265306122,49.9609047108706 23.5204081632653,49.5662129303058 25.7244897959184,49.221048593828 27.9285714285714,48.7619915076242 30.1326530612245,48.2973625223679 32.3367346938775,47.7003838129711 34.5408163265306,47.1849285524298 36.7448979591837,46.4539762854291 38.9489795918367,45.3564683424635 41.1530612244898,44.490397454004 43.3571428571429,43.4377549712309 45.5612244897959,42.3098148244973 47.765306122449,41.1920136145025 49.969387755102,39.6999681394321 52.1734693877551,38.272950136939 54.3775510204082,36.8785864629751 56.5816326530612,35.8179642146784 58.7857142857143,35.5799387069386 60.9897959183673,35.4018029139282 63.1938775510204,35.5190269124148 65.3979591836735,36.5172504101027 67.6020408163265,37.2724588687831 69.8061224489796,37.5258849463005 72.0102040816327,38.6542607425895 74.2142857142857,39.8685809657684 76.4183673469388,40.8703876266869 78.6224489795918,42.2445389166032 80.8265306122449,43.2275814815125 83.030612244898,44.1930128881761 85.234693877551,45.0242784521175 87.4387755102041,45.7034388536176 89.6428571428571,46.5580165254102 91.8469387755102,47.0243559047531 94.0510204081633,47.5018512953358 96.2551020408163,48.0644635734866 98.4591836734694,48.6389433446517 100.663265306122,49.0459457058025 102.867346938775,49.470634835339 105.071428571429,49.8425308955008 107.275510204082,50.0952342719844 109.479591836735,50.403267918832 111.683673469388,50.8028471049807 113.887755102041,51.0350399695596 116.091836734694,51.3745413244741 118.295918367347,51.5875501226615 120.5,51.7944275291795 127.75,59.1752025390072" style="stroke:#7f3f00;fill:white;stroke-width:0.5;"/>
<polyline points="5.25,64.0584008463357 12.5,56.3817547644054 14.7040816326531,56.0300416825904 16.9081632653061,55.6354927183928 19.1122448979592,55.284885402317 21.3163265306122,54.6824738442772 23.5204081632653,54.229596602193 25.7244897959184,53.7125516188689 27.9285714285714,53.2932025898195 30.1326530612245,52.8926069291824 32.3367346938775,52.2682168041337 34.5408163265306,51.7148675240139 36.7448979591837,51.0593128644754 38.9489795918367,50.2224712338452 41.1530612244898,49.0441444719891 43.3571428571429,47.8869289886546 45.5612244897959,46.3646253366777 47.765306122449,44.556491388995 49.969387755102,42.7767871271089 52.1734693877551,41.0484530950455 54.3775510204082,39.1877179435813 56.5816326530612,37.3798741762798 58.7857142857143,36.3661083308019 60.9897959183673,36.4149001570941 63.1938775510204,37.1189381380904 65.3979591836735,38.3467274491425 67.6020408163265,39.8156640957112 69.8061224489796,41.1973499652626 72.0102040816327,42.667334462879 74.2142857142857,44.0681571387392 76.4183673469388,45.2816612381863 78.6224489795918,46.4369667739603 80.8265306122449,47.6404154146323 83.030612244898,48.5440934842388 85.234693877551,49.3043314529806 87.4387755102041,50.0186863038306 89.6428571428571,50.8965731752183 91.8469387755102,51.5292863190759 94.0510204081633,52.1557864278548 96.2551020408163,52.6371270735074 98.4591836734694,53.1807167617826 100.663265306122,53.6406839328517 102.867346938775,54.1543520189497 105.071428571429,54.6256484259402 107.275510204082,54.9161871180475 109.479591836735,55.2829674281262 111.683673469388,55.5940673243852 113.887755102041,55.8742292436388 116.091836734694,56.151159247669 118.295918367347,56.3977417313433 120.5,56.6205137573368 127.75,64.0584008463357" style="stroke:#7f3f00;fill:white;stroke-width:0.5;"/>
<polyline points="5.25,68.9415991536643 12.5,60.9831646457964 14.7040816326531,60.5328606561548 16.9081632653061,60.329690209677 19.1122448979592,59.8947845644795 21.3163265306122,59.4492932835843 23.5204081632653,59.0047942892928 25.7244897959184,58.3493996998458 27.9285714285714,57.6925809847851 30.1326530612245,56.8571187376622 32.3367346938775,55.967764527116 34.5408163265306,55.9744721295786 36.7448979591837,55.3476182616577 38.9489795918367,54.5928578875215 41.1530612244898,53.3134634498407 43.3571428571429,51.8777363626708 45.5612244897959,50.8016748982239 47.765306122449,49.186322783293 49.969387755102,47.2939285629871 52.1734693877551,45.3737992425847 54.3775510204082,43.534203648075 56.5816326530612,41.5650788480663 58.7857142857143,39.6424093096932 60.9897959183673,40.5171049679616 63.1938775510204,40.5391533982756 65.3979591836735,42.2833156366049 67.6020408163265,44.151829364909 69.8061224489796,45.8089966762557 72.0102040816327,47.2968325901787 74.2142857142857,48.6059591775685 76.4183673469388,49.8538681744978 78.6224489795918,51.0140940389048 80.8265306122449,52.0440490624968 83.030612244898,52.9896280520861 85.234693877551,53.7453513427454 87.4387755102041,54.4322189234656 89.6428571428571,55.3045985539298 91.8469387755102,55.9345593411482 94.0510204081633,56.6650349374268 96.2551020408163,57.2453695480956 98.4591836734694,57.8290809476912 100.663265306122,58.4062760518698 102.867346938775,58.6941745242433 105.071428571429,59.1611337075164 107.275510204082,59.5414957083726 109.479591836735,59.9354802144621 111.683673469388,60.2804557229822 113.887755102041,60.8357346583482 116.091836734694,61.0611866048765 118.295918367347,61.3207327909437 120.5,61.5840654817008 127.75,68.9415991536643" style="stroke:#7f3f00;fill:white;stroke-width:0.5;"/>
<polyline points="5.25,73.8247974609928 12.5,65.3315064455744 14.7040816326531,65.0445651714729 16.9081632653061,64.7672389745025 19.1122448979592,64.3508378361074 21.3163265306122,63.8151383282551 23.5204081632653,63.4217318666753 25.7244897959184,63.0239552055059 27.9285714285714,62.3311140891109 30.1326530612245,61.8239785810886 32.3367346938775,61.3788506933229 34.5408163265306,60.553205823504 36.7448979591837,59.6361723210957 38.9489795918367,58.5861903716492 41.1530612244898,57.7495369188468 43.3571428571429,56.7143067833681 45.5612244897959,55.4219027091004 47.765306122449,54.1161176388965 49.969387755102,52.6401787400347 52.1734693877551,51.1966061099423 54.3775510204082,49.5906416292407 56.5816326530612,48.7033748669232 58.7857142857143,47.6541502404873 60.9897959183673,47.1577455688547 63.1938775510204,48.1283697399941 65.3979591836735,49.0422356777502 67.6020408163265,50.1020818943091 69.8061224489796,51.4256026731 72.0102040816327,52.4905540278498 74.2142857142857,53.7382856347465 76.4183673469388,54.9672183361005 78.6224489795918,56.0087542405467 80.8265306122449,57.128787047472 83.030612244898,57.6689063210439 85.234693877551,58.2028705545431 87.4387755102041,58.8188796475134 89.6428571428571,59.7870538766916 91.8469387755102,60.5658304983959 94.0510204081633,61.2296744390752 96.2551020408163,61.888191749316 98.4591836734694,62.3549096851726 100.663265306122,62.6714521037598 102.867346938775,62.8747559852369 105.071428571429,62.4560475609541 107.275510204082,62.8819297753283 109.479591836735,63.5202674968613 111.683673469388,64.2703989188154 113.887755102041,64.3625849882733 116.091836734694,64.8604516452853 118.295918367347,65.6206194997757 120.5,66.8425025988711 127.75,73.8247974609928" style="stroke:#7f3f00;fill:white;stroke-width:0.5;"/>
<polyline points="5.25,78.7079957683213 12.5,69.683184534895 14.7040816326531,69.2375701193346 16.9081632653061,69.0813858327844 19.1122448979592,69.0577274973287 21.3163265306122,68.5241244734905 23.5204081632653,68.1827146641814 25.7244897959184,67.4288352993036 27.9285714285714,67.0065795510536 30.1326530612245,66.580297632121 32.3367346938775,65.827467898763 34.5408163265306,65.1890688371719 36.7448979591837,64.4154422856152 38.9489795918367,63.5955843662084 41.1530612244898,62.5363090441354 43.3571428571429,61.5922845712258 45.5612244897959,60.4073637580347 47.765306122449,59.6070211173548 49.969387755102,58.7990238474194 52.1734693877551,58.0003366013691 54.3775510204082,57.6467127186697 56.5816326530612,56.8248856603102 58.7857142857143,56.2505967771709 60.9897959183673,55.8181047769953 63.1938775510204,55.9969606390053 65.3979591836735,56.8534512872188 67.6020408163265,57.8103039836841 69.8061224489796,58.9217596461583 72.0102040816327,59.8360134198003 74.2142857142857,60.5881891299159 76.4183673469388,61.3572446184157 78.6224489795918,62.0258872850405 80.8265306122449,63.0111181244687 83.030612244898,63.7178920047217 85.234693877551,64.1700216537052 87.4387755102041,64.5493293312245 89.6428571428571,65.1475781694972 91.8469387755102,65.6279572271624 94.0510204081633,66.022937491385 96.2551020408163,66.6107425697219 98.4591836734694,67.0313212448341 100.663265306122,67.4249342283808 102.867346938775,67.6063517371227 105.071428571429,67.9434736498904 107.275510204082,68.0161194622601 109.479591836735,67.6481491555276 111.683673469388,68.4211185990824 113.887755102041,69.587219739097 116.091836734694,70.206650666093 118.295918367347,70.4701363161906 120.5,70.8157948969536 127.75,78.7079957683213" style="stroke:#7f3f00;fill:white;stroke-width:0.5;"/>
<polyline points="5.25,83.5911940756498 12.5,74.5147884384843 14.7040816326531,74.2366815349294 16.9081632653061,74.0087091740658 19.1122448979592,73.5859804978707 21.3163265306122,73.070419248348 23.5204081632653,72.706802806574 25.7244897959184,72.272387385744 27.9285714285714,71.730248945487 30.1326530612245,71.100465302037 32.3367346938775,70.720960156507 34.5408163265306,70.2776343917927 36.7448979591837,69.4700616579266 38.9489795918367,68.6785855006452 41.1530612244898,67.8113498822112 43.3571428571429,66.8446718361481 45.5612244897959,66.3649827589996 47.765306122449,65.6888125516077 49.969387755102,65.5947042576744 52.1734693877551,65.2883677460547 54.3775510204082,64.9504058113667 56.5816326530612,64.5753052308084 58.7857142857143,63.8439430511099 60.9897959183673,63.4800579701284 63.1938775510204,63.8859611205016 65.3979591836735,64.4175819387843 67.6020408163265,65.4811468951147 69.8061224489796,65.6806450533712 72.0102040816327,66.5611053528491 74.2142857142857,67.2948200555957 76.4183673469388,67.9637932636833 78.6224489795918,68.4576492645156 80.8265306122449,68.7328835993838 83.030612244898,69.5061943538553 85.234693877551,70.0913655846869 87.4387755102041,70.2709746274225 89.6428571428571,70.7463088395077 91.8469387755102,71.0318134945067 94.0510204081633,71.2530324449474 96.2551020408163,71.6666862899004 98.4591836734694,72.1220892844752 100.663265306122,72.5116864552128 102.867346938775,72.8911706939208 105.071428571429,73.2203270709256 107.275510204082,73.5103012899882 109.479591836735,73.7055020074581 111.683673469388,73.5468900232013 113.887755102041,73.7182993204057 116.091836734694,73.5631071772614 118.295918367347,73.2325148763207 120.5,73.8379116774196 127.75,83.5911940756498" style="stroke:#7f3f00;fill:white;stroke-width:0.5;"/>
<polyline points="5.25,88.4743923829783 12.5,79.2354468568493 14.7040816326531,79.0115321157352 16.9081632653061,78.7542713179466 19.1122448979592,78.2507272475803 21.3163265306122,77.8186458139718 23.5204081632653,77.5779411551757 25.7244897959184,77.0872082275766 27.9285714285714,76.7446333539705 30.1326530612245,76.1873486011923 32.3367346938775,75.5441286495819 34.5408163265306,75.2237418709535 36.7448979591837,74.6271085565614 38.9489795918367,73.9617816486048 41.1530612244898,73.578317979788 43.3571428571429,72.409698831116 45.5612244897959,71.702807629815 47.765306122449,72.2161756043911 49.969387755102,71.902423473736 52.1734693877551,71.8820530244174 54.3775510204082,71.7789207277723 56.5816326530612,71.3699559263812 58.7857142857143,71.3506973946361 60.9897959183673,70.3475165866107 63.1938775510204,71.2422950613229 65.3979591836735,71.8700335056914 67.6020408163265,72.5722269417887 69.8061224489796,73.0965020748885 72.0102040816327,73.3056414369567 74.2142857142857,73.6715558815318 76.4183673469388,73.9820458075362 78.6224489795918,74.4557712546954 80.8265306122449,74.7774580092266 83.030612244898,75.0917671489575 85.234693877551,75.555780653936 87.4387755102041,76.0888133058738 89.6428571428571,76.2404588649765 91.8469387755102,76.3953410973471 94.0510204081633,76.8311920602136 96.2551020408163,77.1118686946723 98.4591836734694,77.4363405053828 100.663265306122,77.7799264787015 102.867346938775,78.0924372719216 105.071428571429,78.3756948604838 107.275510204082,78.6455454094928 109.479591836735,78.9157075616076 111.683673469388,79.1417918216879 113.887755102041,79.2434734154141 116.091836734694,79.1666168518916 118.295918367347,78.9419547552347 120.5,79.0093851770478 127.75,88.4743923829783" style="stroke:#7f3f00;fill:white;stroke-width:0.5;"/>
<polyline points="5.25,93.3575906903068 12.5,84.2884744043706 14.7040816326531,83.901821423693 16.9081632653061,83.6798145135617 19.1122448979592,83.2038477583732 21.3163265306122,82.9025070906499 23.5204081632653,82.3833600337765 25.7244897959184,82.1444871553699 27.9285714285714,81.6301744078229 30.1326530612245,81.2100038697273 32.3367346938775,80.7829757202084 34.5408163265306,80.4042575632952 36.7448979591837,80.0216518424269 38.9489795918367,79.2902289338319 41.1530612244898,78.9200765851931 43.3571428571429,78.7374157338731 45.5612244897959,78.6100529059644 47.765306122449,78.3080652856144 49.969387755102,78.3769624030829 52.1734693877551,78.3485861238979 54.3775510204082,78.4706726447677 56.5816326530612,78.5108014165211 58.7857142857143,78.5972055264624 60.9897959183673,78.3011420177596 63.1938775510204,78.6139521900259 65.3979591836735,78.6917638324624 67.6020408163265,78.9573488207934 69.8061224489796,79.72790681583 72.0102040816327,79.8411818361758 74.2142857142857,80.2483236783159 76.4183673469388,80.338215741823 78.6224489795918,80.5775625325415 80.8265306122449,80.6536174949796 83.030612244898,80.9376964113204 85.234693877551,81.1961999417248 87.4387755102041,81.3620302100798 89.6428571428571,81.6476026408819 91.8469387755102,81.8960113737793 94.0510204081633,82.195373401557 96.2551020408163,82.4373058993683 98.4591836734694,82.812314438844 100.663265306122,83.0252742842689 102.867346938775,83.3184795217028 105.071428571429,83.5465763819393 107.275510204082,83.8545597279542 109.479591836735,84.0930040642559 111.683673469388,84.2586270462489 113.887755102041,84.4367649967947 116.091836734694,84.5035089718694 118.295918367347,84.7001791232839 120.5,84.6893793083617 127.75,93.3575906903068" style="stroke:#7f3f00;fill:white;stroke-width:0.5;"/>
<polyline points="5.25,98.2407889976353 12.5,89.1505901836819 14.7040816326531,88.973231221921 16.9081632653061,88.5755802943665 19.1122448979592,88.2226354346958 21.3163265306122,87.7892774307742 23.5204081632653,87.7408051612898 25.7244897959184,87.2424623858045 27.9285714285714,86.8007071844259 30.1326530612245,86.4754190798747 32.3367346938775,86.17815821088 34.5408163265306,85.5338738286594 36.7448979591837,85.1440353469809 38.9489795918367,84.740317806969 41.1530612244898,84.7248083472509 43.3571428571429,84.7789391029607 45.5612244897959,84.2484813379482 47.765306122449,84.3735714500425 49.969387755102,84.5268452717847 52.1734693877551,84.5907599604999 54.3775510204082,84.7877568435357 56.5816326530612,85.088271663897 58.7857142857143,85.0688690384818 60.9897959183673,85.3048203086378 63.1938775510204,85.8475951416827 65.3979591836735,86.3967365101625 67.6020408163265,86.2909928047053 69.8061224489796,86.1078723343494 72.0102040816327,86.1370636252798 74.2142857142857,86.3674665248626 76.4183673469388,86.3231226838047 78.6224489795918,86.5448970073875 80.8265306122449,86.6604087656267 83.030612244898,86.5798156330163 85.234693877551,86.9020802779489 87.4387755102041,87.0932922430916 89.6428571428571,87.2656711978175 91.8469387755102,87.5187884544961 94.0510204081633,87.7004562843352 96.2551020408163,87.8372569165549 98.4591836734694,88.0033576622112 100.663265306122,88.0534839010414 102.867346938775,88.3656722726355 105.071428571429,88.6695548059695 107.275510204082,88.8019574298274 109.479591836735,89.085005734427 111.683673469388,89.2693179852684 113.887755102041,89.3805354301312 116.091836734694,89.6003911013811 118.295918367347,89.6876615719534 120.5,89.7674746120624 127.75,98.2407889976353" style="stroke:#7f3f00;fill:white;stroke-width:0.5;"/>
<polyline points="5.25,103.123987304964 12.5,93.898661990121 14.7040816326531,93.6540715500476 16.9081632653061,93.4105641504232 19.1122448979592,93.0956553447482 21.3163265306122,92.7935489212022 23.5204081632653,92.396924534819 25.7244897959184,92.0332882171209 27.9285714285714,91.7685487657618 30.1326530612245,91.6403765778312 32.3367346938775,91.235069226809 34.5408163265306,90.8571509595671 36.7448979591837,90.5608954576 38.9489795918367,90.3334135130632 41.1530612244898,90.318682119927 43.3571428571429,90.2137437553876 45.5612244897959,90.1520539694187 47.765306122449,90.2748977381379 49.969387755102,90.5250764140857 52.1734693877551,90.53399634649 54.3775510204082,90.8016039984491 56.5816326530612,91.0291329741292 58.7857142857143,91.3104778436663 60.9897959183673,91.4905680744096 63.1938775510204,91.7148483538112 65.3979591836735,91.7652368426834 67.6020408163265,91.9846718691715 69.8061224489796,92.0624551035625 72.0102040816327,92.1197846577114 74.2142857142857,92.1764608159871 76.4183673469388,92.1607806258205 78.6224489795918,92.2981262144738 80.8265306122449,92.3827409182554 83.030612244898,92.4374914276444 85.234693877551,92.4879382446561 87.4387755102041,92.6078451005507 89.6428571428571,92.8239138706289 91.8469387755102,93.0215343044859 94.0510204081633,93.169209928969 96.2551020408163,93.3028039281908 98.4591836734694,93.3115190214983 100.663265306122,93.4737638406224 102.867346938775,93.5179903392532 105.071428571429,93.683120609234 107.275510204082,93.8651026474807 109.479591836735,94.0353430760043 111.683673469388,94.1642850302201 113.887755102041,94.3083446013218 116.091836734694,94.5597594669113 118.295918367347,94.7277857475107 120.5,94.904091171665 127.75,103.123987304964" style="stroke:#7f3f00;fill:white;stroke-width:0.5;"/>
</g>
</svg>