<?xml version="1.0" standalone="no"?>
<!DOCTYPE svg PUBLIC "-//W3C//DTD SVG 1.1//EN"
  "http://www.w3.org/Graphics/SVG/1.1/DTD/svg11.dtd">
<svg width="216" height="279" version="1.1"
  xmlns="http://www.w3.org/2000/svg">
<g transform="translate( 41, 73)" >
<text x="0" y="-20" font-size="8"><tspan x="0" dy="0em">Mt. Hood, a volcanic peak near Portland Oregon, USA</tspan></text><text x="0" y="-10" font-size="8"><tspan x="0" dy="0em">(45.33, -121.76) to (45.41, -121.64): Looking north</tspan></text><line x1="5.25" y1="21.0538933400118" x2="127.75" y2="21.0538933400118" style="stroke:#007299;fill:none;stroke-width:0.5;"/>
<line x1="5.25" y1="27.1133742280102" x2="127.75" y2="27.1133742280102" style="stroke:#007299;fill:none;stroke-width:0.5;"/>
<line x1="5.25" y1="33.1728551160086" x2="127.75" y2="33.1728551160086" style="stroke:#007299;fill:none;stroke-width:0.5;"/>
<line x1="5.25" y1="39.2323360040071" x2="127.75" y2="39.2323360040071" style="stroke:#007299;fill:none;stroke-width:0.5;"/>
<line x1="5.25" y1="45.2918168920055" x2="127.75" y2="45.2918168920055" style="stroke:#007299;fill:none;stroke-width:0.5;"/>
<line x1="5.25" y1="51.3512977800039" x2="127.75" y2="51.3512977800039" style="stroke:#007299;fill:none;stroke-width:0.5;"/>
<line x1="5.25" y1="57.4107786680024" x2="127.75" y2="57.4107786680024" style="stroke:#007299;fill:none;stroke-width:0.5;"/>
<line x1="5.25" y1="63.4702595560008" x2="127.75" y2="63.4702595560008" style="stroke:#007299;fill:none;stroke-width:0.5;"/>
<line x1="5.25" y1="69.5297404439992" x2="127.75" y2="69.5297404439992" style="stroke:#007299;fill:none;stroke-width:0.5;"/>
<line x1="5.25" y1="75.5892213319976" x2="127.75" y2="75.5892213319976" style="stroke:#007299;fill:none;stroke-width:0.5;"/>
<line x1="5.25" y1="81.6487022199961" x2="127.75" y2="81.6487022199961" style="stroke:#007299;fill:none;stroke-width:0.5;"/>
<line x1="5.25" y1="87.7081831079945" x2="127.75" y2="87.7081831079945" style="stroke:#007299;fill:none;stroke-width:0.5;"/>
<line x1="5.25" y1="93.7676639959929" x2="127.75" y2="93.7676639959929" style="stroke:#007299;fill:none;stroke-width:0.5;"/>
<line x1="5.25" y1="99.8271448839914" x2="127.75" y2="99.8271448839914" style="stroke:#007299;fill:none;stroke-width:0.5;"/>
<line x1="5.25" y1="105.88662577199" x2="127.75" y2="105.88662577199" style="stroke:#007299;fill:none;stroke-width:0.5;"/>
<line x1="5.25" y1="111.946106659988" x2="127.75" y2="111.946106659988" style="stroke:#007299;fill:none;stroke-width:0.5;"/>
<polygon points="0,0 133,0 133,133 0,133" style="stroke:#7f3f00;fill:none;stroke-width:0.5;"/>
<polyline points="5.25,21.0538933400118 12.5,12.88612145386 14.7040816326531,12.7626889452404 16.9081632653061,12.6008318655233 19.1122448979592,12.3180378963033 21.3163265306122,12.0327205531292 23.5204081632653,11.8460694090888 25.7244897959184,11.4568003221237 27.9285714285714,11.4716817975428 30.1326530612245,10.7870047072215 32.3367346938775,10.4817545998542 34.5408163265306,10.2907953520794 36.7448979591837,10.0119428004075 38.9489795918367,9.76928427618376 41.1530612244898,9.46983147091541 43.3571428571429,9.31492213755165 45.5612244897959,9.09185550403142 47.765306122449,8.89811652539162 49.969387755102,8.85486236722227 52.1734693877551,8.80144062641533 54.3775510204082,8.59029606332404 56.5816326530612,8.51397267857758 58.7857142857143,8.89135531542984 60.9897959183673,9.33139459882618 63.1938775510204,8.73105464394972 65.3979591836735,9.8425632586423 67.6020408163265,10.1485204582807 69.8061224489796,10.2902872764608 72.0102040816327,9.78223816866353 74.2142857142857,10.1853697561219 76.4183673469388,9.07876414957283 78.6224489795918,8.97664475220846 80.8265306122449,8.6770991475249 83.030612244898,8.37888968142492 85.234693877551,8.85355088246346 87.4387755102041,8.86454076865199 89.6428571428571,8.99090555047159 91.8469387755102,9.18372978886372 94.0510204081633,9.84232538751021 96.2551020408163,9.90836861654253 98.4591836734694,10.3079549033199 100.663265306122,10.5618584066377 102.867346938775,10.5478702242501 105.071428571429,10.4932215492429 107.275510204082,10.4660765224588 109.479591836735,10.6154208917947 111.683673469388,11.1633298342213 113.887755102041,11.516571206516 116.091836734694,11.7825499644755 118.295918367347,11.836062187432 120.5,11.9466989799804 127.75,21.0538933400118" style="stroke:#7f3f00;fill:white;stroke-width:0.5;"/>
<polyline points="5.25,27.1133742280102 12.5,18.6759303340911 14.7040816326531,18.9293803349152 16.9081632653061,19.488811749635 19.1122448979592,19.164303535528 21.3163265306122,18.3711012876902 23.5204081632653,17.2324076777798 25.7244897959184,16.9052237176225 27.9285714285714,16.5044808273593 30.1326530612245,16.1957218494536 32.3367346938775,15.8517442484832 34.5408163265306,15.5558323787837 36.7448979591837,15.4113291788973 38.9489795918367,14.9663392223998 41.1530612244898,14.7661984222732 43.3571428571429,14.4766094314045 45.5612244897959,14.1418376770218 47.765306122449,13.9625598275316 49.969387755102,13.7281357774699 52.1734693877551,13.5813182375557 54.3775510204082,13.4706277499289 56.5816326530612,13.7236304305481 58.7857142857143,13.9433584980492 60.9897959183673,13.9472569452304 63.1938775510204,14.0668103715117 65.3979591836735,14.8503057448054 67.6020408163265,15.1595845897935 69.8061224489796,15.3048049837113 72.0102040816327,14.818549483982 74.2142857142857,14.3412191904408 76.4183673469388,14.5582455296999 78.6224489795918,13.5292409415811 80.8265306122449,13.0846003389315 83.030612244898,13.3675540093542 85.234693877551,13.9802702759055 87.4387755102041,14.3741656489877 89.6428571428571,14.802079452735 91.8469387755102,15.0781616988934 94.0510204081633,15.8309204910735 96.2551020408163,16.0662951270418 98.4591836734694,15.9089237937752 100.663265306122,15.4573514182424 102.867346938775,15.2898331450542 105.071428571429,15.4513868533214 107.275510204082,15.4967035142616 109.479591836735,15.6423681935803 111.683673469388,16.3750356315619 113.887755102041,17.5294977551108 116.091836734694,18.0366360267916 118.295918367347,17.9689724527474 120.5,17.9300796882415 127.75,27.1133742280102" style="stroke:#7f3f00;fill:white;stroke-width:0.5;"/>
<polyline points="5.25,33.1728551160086 12.5,24.7916751049139 14.7040816326531,25.0740219430903 16.9081632653061,24.550074446193 19.1122448979592,23.2983178264947 21.3163265306122,22.5643617800729 23.5204081632653,22.7722201210676 25.7244897959184,23.4297352209621 27.9285714285714,22.7930873031199 30.1326530612245,22.0384807106919 32.3367346938775,21.0668131846813 34.5408163265306,20.6102179133243 36.7448979591837,20.3280279348428 38.9489795918367,19.96407892475 41.1530612244898,19.8248950787267 43.3571428571429,19.5648180420338 45.5612244897959,19.2495201364937 47.765306122449,18.9518287639259 49.969387755102,18.5517186200675 52.1734693877551,18.4961135798097 54.3775510204082,18.3167871953978 56.5816326530612,18.3202898691437 58.7857142857143,18.5346918667081 60.9897959183673,18.2910810918366 63.1938775510204,18.2974745671323 65.3979591836735,19.1149685972541 67.6020408163265,19.7153348475524 69.8061224489796,20.6175900813407 72.0102040816327,19.4353338649458 74.2142857142857,19.0094349452974 76.4183673469388,19.0799308222345 78.6224489795918,18.1795127487444 80.8265306122449,18.1952344181778 83.030612244898,18.5915506507313 85.234693877551,19.0214303729848 87.4387755102041,19.4617017575407 89.6428571428571,19.5148993122537 91.8469387755102,20.0695342637966 94.0510204081633,20.0454124168831 96.2551020408163,20.1259203577141 98.4591836734694,20.3394982586157 100.663265306122,20.314308062083 102.867346938775,20.5333270308795 105.071428571429,20.937942030568 107.275510204082,21.0959437417348 109.479591836735,21.5121702495842 111.683673469388,22.7460028784333 113.887755102041,23.2011659351126 116.091836734694,23.4334757842063 118.295918367347,22.6995901667584 120.5,22.8095406341708 127.75,33.1728551160086" style="stroke:#7f3f00;fill:white;stroke-width:0.5;"/>
<polyline points="5.25,39.2323360040071 12.5,28.9303799413587 14.7040816326531,28.5073449951445 16.9081632653061,28.4123836087281 19.1122448979592,28.661327751246 21.3163265306122,29.2163804865238 23.5204081632653,28.8392088352052 25.7244897959184,29.121755613269 27.9285714285714,29.016157699843 30.1326530612245,28.4573193764994 32.3367346938775,27.0487943637779 34.5408163265306,25.9432583379785 36.7448979591837,25.480380287906 38.9489795918367,24.8377175234762 41.1530612244898,24.4300310479267 43.3571428571429,24.1957799411331 45.5612244897959,23.8803923325982 47.765306122449,23.7066959271313 49.969387755102,23.2908472876588 52.1734693877551,22.9529868313218 54.3775510204082,22.7628866985088 56.5816326530612,22.7431646279267 58.7857142857143,22.7933925742474 60.9897959183673,22.6606266307168 63.1938775510204,22.5925584508153 65.3979591836735,23.7459145230647 67.6020408163265,23.7886810764252 69.8061224489796,24.4868774461756 72.0102040816327,23.774778603826 74.2142857142857,23.7417729679216 76.4183673469388,23.3772393648989 78.6224489795918,22.9593572082553 80.8265306122449,22.7979479743702 83.030612244898,23.2982855513092 85.234693877551,23.3054528361844 87.4387755102041,23.7854994521018 89.6428571428571,24.2209512853106 91.8469387755102,24.5973475607503 94.0510204081633,24.7938923617309 96.2551020408163,24.9448063522582 98.4591836734694,25.2537714671149 100.663265306122,25.8303736646708 102.867346938775,26.3278381817597 105.071428571429,27.1300412773393 107.275510204082,28.2865603388225 109.479591836735,28.5813140527852 111.683673469388,28.6636478880668 113.887755102041,28.2262590651104 116.091836734694,28.1243194626281 118.295918367347,28.9371303788624 120.5,29.5001436575505 127.75,39.2323360040071" style="stroke:#7f3f00;fill:white;stroke-width:0.5;"/>
<polyline points="5.25,45.2918168920055 12.5,34.7498574179215 14.7040816326531,34.486530405072 16.9081632653061,34.1479527375402 19.1122448979592,33.6633718027811 21.3163265306122,33.1447172317183 23.5204081632653,32.8243382407821 25.7244897959184,32.771842166308 27.9285714285714,32.5804739795243 30.1326530612245,31.9272583559025 32.3367346938775,32.8679048432203 34.5408163265306,33.2026195313707 36.7448979591837,32.12483440363 38.9489795918367,31.4497483807086 41.1530612244898,31.1762884037885 43.3571428571429,30.251988331563 45.5612244897959,29.2237350407156 47.765306122449,28.122583398031 49.969387755102,27.8509395166592 52.1734693877551,27.6105619950712 54.3775510204082,27.1441447848214 56.5816326530612,27.1306279064956 58.7857142857143,26.9345273854118 60.9897959183673,26.9485895983334 63.1938775510204,26.7562520836646 65.3979591836735,27.9258831831783 67.6020408163265,27.7259521513199 69.8061224489796,27.9141428855894 72.0102040816327,28.0320369124739 74.2142857142857,27.6812675814071 76.4183673469388,28.2662461813183 78.6224489795918,27.1763638112284 80.8265306122449,27.3264488728599 83.030612244898,27.8206169102727 85.234693877551,28.3426814515331 87.4387755102041,28.5083175952549 89.6428571428571,30.0145296473545 91.8469387755102,31.1105920685458 94.0510204081633,31.4674284855339 96.2551020408163,31.7811873440978 98.4591836734694,32.3691206060175 100.663265306122,33.365433693601 102.867346938775,33.3335978794641 105.071428571429,32.4173538921239 107.275510204082,32.1662139327931 109.479591836735,32.9339057470776 111.683673469388,34.0135217428167 113.887755102041,33.9417807865846 116.091836734694,34.4923174398577 118.295918367347,34.9033486458896 120.5,34.9511546880172 127.75,45.2918168920055" style="stroke:#7f3f00;fill:white;stroke-width:0.5;"/>
<polyline points="5.25,51.3512977800039 12.5,39.9149816644478 14.7040816326531,39.8077090140599 16.9081632653061,39.9915042265498 19.1122448979592,39.7703185221332 21.3163265306122,38.9408709184357 23.5204081632653,38.6433927829195 25.7244897959184,37.9164343210853 27.9285714285714,37.6078070600654 30.1326530612245,37.4725604434349 32.3367346938775,36.7663831035418 34.5408163265306,36.1583023568128 36.7448979591837,35.8420142782838 38.9489795918367,35.9226180711541 41.1530612244898,34.713427401663 43.3571428571429,34.0669137358039 45.5612244897959,34.0886646861785 47.765306122449,33.523352106961 49.969387755102,32.3153732311643 52.1734693877551,31.8381306662383 54.3775510204082,31.4838601739164 56.5816326530612,31.0839625407528 58.7857142857143,30.8266821395261 60.9897959183673,30.8188190147256 63.1938775510204,30.6839552266218 65.3979591836735,31.326595983693 67.6020408163265,31.4986533903298 69.8061224489796,31.5440632789662 72.0102040816327,31.6878442650814 74.2142857142857,31.4087875943654 76.4183673469388,31.588804785642 78.6224489795918,31.750281907819 80.8265306122449,31.7419856720983 83.030612244898,32.9521963950315 85.234693877551,33.555383777788 87.4387755102041,34.4721789113908 89.6428571428571,35.4828938334086 91.8469387755102,36.5010706219433 94.0510204081633,36.7055977207968 96.2551020408163,36.7840308488408 98.4591836734694,36.7553369923367 100.663265306122,36.5903548312165 102.867346938775,36.8605255757562 105.071428571429,37.9039544922683 107.275510204082,39.0123229355537 109.479591836735,39.7242025173417 111.683673469388,39.4931548002634 113.887755102041,38.517150724311 116.091836734694,37.7475457157953 118.295918367347,37.6399318553739 120.5,37.741703179977 127.75,51.3512977800039" style="stroke:#7f3f00;fill:white;stroke-width:0.5;"/>
<polyline points="5.25,57.4107786680024 12.5,48.2322283076315 14.7040816326531,47.3585749121101 16.9081632653061,46.5042225830497 19.1122448979592,45.908661096938 21.3163265306122,45.3999717557682 23.5204081632653,44.7254598513896 25.7244897959184,44.1587097230494 27.9285714285714,43.5010969477976 30.1326530612245,42.8615135387516 32.3367346938775,42.2986335255315 34.5408163265306,41.9215566144915 36.7448979591837,41.7083168031525 38.9489795918367,41.466288319365 41.1530612244898,40.50674143884 43.3571428571429,39.6110452754939 45.5612244897959,38.8480298969513 47.765306122449,38.112183980926 49.969387755102,37.3901020422792 52.1734693877551,36.6746183839273 54.3775510204082,35.9505252356554 56.5816326530612,35.4869860988479 58.7857142857143,34.8492790834573 60.9897959183673,34.4098916290309 63.1938775510204,34.3251850251238 65.3979591836735,34.607686795263 67.6020408163265,34.7398692612916 69.8061224489796,34.0700626538192 72.0102040816327,34.1496764183296 74.2142857142857,34.6129413814988 76.4183673469388,35.117862094484 78.6224489795918,36.2168549138531 80.8265306122449,37.2701662785708 83.030612244898,37.8268140508481 85.234693877551,38.5185076236559 87.4387755102041,39.2048419571739 89.6428571428571,39.9968842522092 91.8469387755102,41.0211655335814 94.0510204081633,41.8325746154157 96.2551020408163,42.6651241571532 98.4591836734694,43.3544534170817 100.663265306122,44.0444839155605 102.867346938775,43.9936301666431 105.071428571429,43.6446987731028 107.275510204082,43.1679440206039 109.479591836735,42.6850349483329 111.683673469388,42.6149119620842 113.887755102041,42.8814972439344 116.091836734694,43.5776051779321 118.295918367347,44.0458514791411 120.5,44.3024411288755 127.75,57.4107786680024" style="stroke:#7f3f00;fill:white;stroke-width:0.5;"/>
<polyline points="5.25,63.4702595560008 12.5,54.536701606635 14.7040816326531,54.5829275569476 16.9081632653061,53.708619001236 19.1122448979592,52.7315620148854 21.3163265306122,52.3956524544535 23.5204081632653,51.5045210377041 25.7244897959184,50.9187530180133 27.9285714285714,50.938567739525 30.1326530612245,50.5405189643707 32.3367346938775,49.5765462014379 34.5408163265306,48.6214750758944 36.7448979591837,48.114296635403 38.9489795918367,47.3516252663534 41.1530612244898,46.3941786666753 43.3571428571429,45.5418310076557 45.5612244897959,44.2850116866964 47.765306122449,43.1348578658715 49.969387755102,42.0853599631572 52.1734693877551,41.1287979676221 54.3775510204082,40.3939940141485 56.5816326530612,39.7836914765759 58.7857142857143,39.2485896524287 60.9897959183673,38.6462015020458 63.1938775510204,37.8253877084863 65.3979591836735,37.5028175214926 67.6020408163265,36.3215718224593 69.8061224489796,35.8808401466937 72.0102040816327,37.1990364958612 74.2142857142857,38.8531969456152 76.4183673469388,39.9223164977274 78.6224489795918,40.6126268746204 80.8265306122449,41.2485608874221 83.030612244898,41.9450901018463 85.234693877551,43.0378324818241 87.4387755102041,43.7445264695235 89.6428571428571,44.8600471733377 91.8469387755102,46.0455436934314 94.0510204081633,46.7541944923745 96.2551020408163,46.8040628047651 98.4591836734694,46.9154827908312 100.663265306122,47.3316415734732 102.867346938775,47.1194928285713 105.071428571429,47.5713180644092 107.275510204082,48.1819255244854 109.479591836735,48.7415886145584 111.683673469388,49.1750741154866 113.887755102041,49.3816673555026 116.091836734694,50.04084441503 118.295918367347,50.7539619153224 120.5,51.3599857704836 127.75,63.4702595560008" style="stroke:#7f3f00;fill:white;stroke-width:0.5;"/>
<polyline points="5.25,69.5297404439992 12.5,63.0097589396716 14.7040816326531,61.7828798662611 16.9081632653061,59.9876516192491 19.1122448979592,59.8352370429225 21.3163265306122,60.314915410762 23.5204081632653,60.7560299300142 25.7244897959184,59.8077372683534 27.9285714285714,58.6515742286764 30.1326530612245,57.5358727049054 32.3367346938775,56.290277862016 34.5408163265306,55.6869325077189 36.7448979591837,55.646282062764 38.9489795918367,54.8986057507423 41.1530612244898,54.1543892123524 43.3571428571429,52.8714745521342 45.5612244897959,51.9698459251764 47.765306122449,50.6983877455653 49.969387755102,48.8671189868037 52.1734693877551,47.9137739899032 54.3775510204082,47.012068039751 56.5816326530612,46.1473005482787 58.7857142857143,44.9983187359071 60.9897959183673,42.9771938554258 63.1938775510204,40.963656006077 65.3979591836735,40.379298660737 67.6020408163265,39.6769864340284 69.8061224489796,39.2323360040071 72.0102040816327,41.6870095227514 74.2142857142857,43.6408769781155 76.4183673469388,44.6783402436643 78.6224489795918,45.7574038266651 80.8265306122449,46.7454819639612 83.030612244898,47.8002260903684 85.234693877551,48.2747554432076 87.4387755102041,49.1621484234393 89.6428571428571,49.9762278761946 91.8469387755102,50.3456092606107 94.0510204081633,50.6854269431602 96.2551020408163,50.8099961453343 98.4591836734694,51.3918015424099 100.663265306122,52.2425037601693 102.867346938775,52.7702072363918 105.071428571429,53.0373494343882 107.275510204082,53.7805586889489 109.479591836735,54.1825206179972 111.683673469388,54.8501239754962 113.887755102041,55.4113900298512 116.091836734694,55.66659410534 118.295918367347,56.0979621891386 120.5,56.3750511748678 127.75,69.5297404439992" style="stroke:#7f3f00;fill:white;stroke-width:0.5;"/>
<polyline points="5.25,75.5892213319976 12.5,66.8824431525654 14.7040816326531,65.8743971886127 16.9081632653061,65.0080841931366 19.1122448979592,64.178126209507 21.3163265306122,63.5137912436908 23.5204081632653,62.9251423057464 25.7244897959184,62.0754992833296 27.9285714285714,61.6577176443799 30.1326530612245,61.1174318505641 32.3367346938775,60.6031649945865 34.5408163265306,60.0754710103776 36.7448979591837,59.568353576996 38.9489795918367,58.770060805194 41.1530612244898,58.0443858042248 43.3571428571429,57.5396426998942 45.5612244897959,57.2534221092301 47.765306122449,56.7079789803868 49.969387755102,56.165222779594 52.1734693877551,55.4980658556185 54.3775510204082,54.5081668185514 56.5816326530612,53.8208151078974 58.7857142857143,52.2966634665915 60.9897959183673,50.5394795088058 63.1938775510204,48.5644169046888 65.3979591836735,47.8471035265444 67.6020408163265,48.6016839455811 69.8061224489796,49.3780656864681 72.0102040816327,50.757441953607 74.2142857142857,51.7509944161178 76.4183673469388,52.6861500493803 78.6224489795918,53.3119330864407 80.8265306122449,54.1271411206287 83.030612244898,54.6845824487818 85.234693877551,54.958923609542 87.4387755102041,54.3767774938856 89.6428571428571,54.6061683107407 91.8469387755102,55.3343102480715 94.0510204081633,56.1953352586667 96.2551020408163,56.9934821737184 98.4591836734694,57.6255329138205 100.663265306122,58.2540473275369 102.867346938775,58.9706067086072 105.071428571429,59.3621349541202 107.275510204082,59.5343350425694 109.479591836735,60.1904147872847 111.683673469388,60.6427293700781 113.887755102041,61.1752414515424 116.091836734694,61.8396911096241 118.295918367347,62.4245159060322 120.5,62.9192924511781 127.75,75.5892213319976" style="stroke:#7f3f00;fill:white;stroke-width:0.5;"/>
<polyline points="5.25,81.6487022199961 12.5,71.2500063951538 14.7040816326531,70.885356136407 16.9081632653061,70.3853197283441 19.1122448979592,69.9650409004927 21.3163265306122,69.6559001391504 23.5204081632653,69.4847034589537 25.7244897959184,68.8839234358458 27.9285714285714,69.5079635108325 30.1326530612245,69.6569865962179 32.3367346938775,68.9079989519712 34.5408163265306,67.8273647562251 36.7448979591837,66.9663275770265 38.9489795918367,67.353903934273 41.1530612244898,67.3568473195117 43.3571428571429,66.1142552845731 45.5612244897959,65.3919579615884 47.765306122449,64.7259927526868 49.969387755102,64.1257983855954 52.1734693877551,63.4770299547766 54.3775510204082,62.701796263188 56.5816326530612,61.2209713307873 58.7857142857143,59.5282478187482 60.9897959183673,58.7647141070035 63.1938775510204,59.500221107295 65.3979591836735,59.2929917592558 67.6020408163265,59.2657480115612 69.8061224489796,60.0929086592686 72.0102040816327,59.9519174806996 74.2142857142857,59.6205672645611 76.4183673469388,60.1566505700456 78.6224489795918,61.0051538891712 80.8265306122449,62.1806443468408 83.030612244898,62.8500320106074 85.234693877551,62.9927920447481 87.4387755102041,63.3355546886627 89.6428571428571,63.6538682505603 91.8469387755102,63.8929964222338 94.0510204081633,63.5546200244328 96.2551020408163,64.0998389178687 98.4591836734694,64.7152115002387 100.663265306122,65.1523358584727 102.867346938775,65.6704307742654 105.071428571429,66.1647855846196 107.275510204082,66.6040953262355 109.479591836735,67.1380528296425 111.683673469388,67.5964877224518 113.887755102041,68.1218398099562 116.091836734694,68.8698340376011 118.295918367347,69.0418303794593 120.5,68.8887959187213 127.75,81.6487022199961" style="stroke:#7f3f00;fill:white;stroke-width:0.5;"/>
<polyline points="5.25,87.7081831079945 12.5,80.9598269884661 14.7040816326531,80.4534775004737 16.9081632653061,80.3736003944722 19.1122448979592,80.6065120323767 21.3163265306122,80.598224883802 23.5204081632653,80.3682225189929 25.7244897959184,80.0092049695901 27.9285714285714,79.5251126350475 30.1326530612245,78.4740929257712 32.3367346938775,77.6844555137065 34.5408163265306,76.651510355791 36.7448979591837,75.9922286186011 38.9489795918367,75.0376097387111 41.1530612244898,74.1898162958823 43.3571428571429,72.9941887086011 45.5612244897959,72.0635540203509 47.765306122449,71.0754289921144 49.969387755102,71.1973610132841 52.1734693877551,70.7302680100486 54.3775510204082,70.0388239752316 56.5816326530612,69.2343506874002 58.7857142857143,68.6053580958814 60.9897959183673,68.9568407457597 63.1938775510204,68.7301442484207 65.3979591836735,68.7979337809456 67.6020408163265,68.988147106025 69.8061224489796,69.1449153373491 72.0102040816327,69.0144128078282 74.2142857142857,68.7086543109771 76.4183673469388,68.617653998044 78.6224489795918,68.6867104868324 80.8265306122449,69.0155206159676 83.030612244898,69.390670282353 85.234693877551,69.8555421754631 87.4387755102041,70.5792345797739 89.6428571428571,71.3719701534841 91.8469387755102,71.8091356950328 94.0510204081633,71.8943418133955 96.2551020408163,71.7306401999189 98.4591836734694,71.4997693721175 100.663265306122,71.7379299303233 102.867346938775,72.1536429219575 105.071428571429,72.5618049309559 107.275510204082,72.8962971250191 109.479591836735,73.3416075363566 111.683673469388,73.8529920047535 113.887755102041,74.056629377613 116.091836734694,74.7380063520786 118.295918367347,75.3715939747837 120.5,75.4880279004716 127.75,87.7081831079945" style="stroke:#7f3f00;fill:white;stroke-width:0.5;"/>
<polyline points="5.25,93.7676639959929 12.5,88.3580577043566 14.7040816326531,88.0385439275565 16.9081632653061,87.8039297445948 19.1122448979592,87.2448754714361 21.3163265306122,86.5218733139337 23.5204081632653,85.3348059108517 25.7244897959184,85.6915706278797 27.9285714285714,85.4772474910712 30.1326530612245,84.2503540128747 32.3367346938775,83.0931419351644 34.5408163265306,82.0862632955461 36.7448979591837,80.7200799530812 38.9489795918367,79.9104325467452 41.1530612244898,79.1181243632911 43.3571428571429,78.347972561874 45.5612244897959,78.9787902481158 47.765306122449,79.5570885440818 49.969387755102,78.6137591617659 52.1734693877551,78.2124884083648 54.3775510204082,78.2431502933821 56.5816326530612,77.9515067008504 58.7857142857143,77.0811181762608 60.9897959183673,76.4124143758257 63.1938775510204,75.8260014524229 65.3979591836735,74.7044103794829 67.6020408163265,76.8155155438776 69.8061224489796,77.9129990154689 72.0102040816327,78.159190481226 74.2142857142857,77.5126862329184 76.4183673469388,77.8060718862339 78.6224489795918,78.0234977818532 80.8265306122449,77.7941582543783 83.030612244898,78.0847522395409 85.234693877551,78.541781887023 87.4387755102041,77.9974538950633 89.6428571428571,77.1524209097172 91.8469387755102,77.8056379514329 94.0510204081633,78.238045656825 96.2551020408163,79.0492241888299 98.4591836734694,79.6810080719251 100.663265306122,79.3197695564712 102.867346938775,79.5573626568347 105.071428571429,79.6634275179384 107.275510204082,79.9077327113387 109.479591836735,80.9961673120108 111.683673469388,81.658347982707 113.887755102041,81.4338413382691 116.091836734694,82.1344063221861 118.295918367347,81.5650906655072 120.5,81.7131362948085 127.75,93.7676639959929" style="stroke:#7f3f00;fill:white;stroke-width:0.5;"/>
<polyline points="5.25,99.8271448839914 12.5,91.9813795313973 14.7040816326531,91.5220666575899 16.9081632653061,90.633480710861 19.1122448979592,90.2148446271162 21.3163265306122,90.2587315251709 23.5204081632653,90.3490475142534 25.7244897959184,90.9900103601665 27.9285714285714,90.5377300438774 30.1326530612245,89.7321197750697 32.3367346938775,89.2306178838968 34.5408163265306,88.8381209745983 36.7448979591837,88.2109968686463 38.9489795918367,87.136530583319 41.1530612244898,87.1931805349812 43.3571428571429,86.891042392569 45.5612244897959,86.4646485126459 47.765306122449,85.7341855171913 49.969387755102,85.2971767849268 52.1734693877551,85.1653278534565 54.3775510204082,84.3657883680972 56.5816326530612,83.8229793850869 58.7857142857143,83.3060645272454 60.9897959183673,82.8926269193267 63.1938775510204,83.1181481034368 65.3979591836735,83.7489690895013 67.6020408163265,84.5034106033068 69.8061224489796,85.760798827295 72.0102040816327,85.96344641964 74.2142857142857,85.9212887375553 76.4183673469388,85.5658340083099 78.6224489795918,85.8579704450428 80.8265306122449,86.6849419431324 83.030612244898,87.0642879238301 85.234693877551,86.9919937413522 87.4387755102041,87.0516169271241 89.6428571428571,86.6567987570416 91.8469387755102,85.8711740310675 94.0510204081633,85.5866602909706 96.2551020408163,86.0573834262499 98.4591836734694,86.5596187127508 100.663265306122,86.3323940771541 102.867346938775,86.569306836315 105.071428571429,86.6364341899081 107.275510204082,86.8012467417396 109.479591836735,87.0389987982185 111.683673469388,87.4116733293393 113.887755102041,87.6741851214734 116.091836734694,88.0850694302622 118.295918367347,88.1679750109911 120.5,88.4197562854201 127.75,99.8271448839914" style="stroke:#7f3f00;fill:white;stroke-width:0.5;"/>
<polyline points="5.25,105.88662577199 12.5,98.5951472215946 14.7040816326531,98.5737222997998 16.9081632653061,98.7341411197463 19.1122448979592,99.1056255730734 21.3163265306122,99.4042670522113 23.5204081632653,99.1965466993659 25.7244897959184,97.7117581816372 27.9285714285714,96.7180400715389 30.1326530612245,96.4736888445001 32.3367346938775,95.3373130209045 34.5408163265306,94.5249180299982 36.7448979591837,94.3023734076422 38.9489795918367,94.0918800751753 41.1530612244898,93.8904056563869 43.3571428571429,93.9427013411111 45.5612244897959,93.9804776989419 47.765306122449,93.7006744424481 49.969387755102,92.857510457273 52.1734693877551,92.4068180698118 54.3775510204082,91.7729044741744 56.5816326530612,91.107405502572 58.7857142857143,91.2465875403285 60.9897959183673,91.5354486081437 63.1938775510204,92.3832860990262 65.3979591836735,93.5469836730303 67.6020408163265,93.7169456648441 69.8061224489796,93.4049301810269 72.0102040816327,93.0737061920584 74.2142857142857,93.2872168981506 76.4183673469388,93.4906444430522 78.6224489795918,93.5689311836764 80.8265306122449,93.9426494009503 83.030612244898,94.2928475390906 85.234693877551,95.1738738576335 87.4387755102041,94.9060248897681 89.6428571428571,94.4668769924261 91.8469387755102,94.24824440321 94.0510204081633,93.4711448682038 96.2551020408163,93.0086498089164 98.4591836734694,93.5534221766368 100.663265306122,94.2948360206044 102.867346938775,94.6084730954389 105.071428571429,93.570512050332 107.275510204082,93.1781921106586 109.479591836735,93.6708650098489 111.683673469388,94.0857499125305 113.887755102041,94.5173880492096 116.091836734694,95.0342289576942 118.295918367347,95.3913238124025 120.5,95.6463179576388 127.75,105.88662577199" style="stroke:#7f3f00;fill:white;stroke-width:0.5;"/>
<polyline points="5.25,111.946106659988 12.5,106.946106659988 14.7040816326531,106.112728901837 16.9081632653061,105.063711386299 19.1122448979592,104.59006124375 21.3163265306122,103.312871148395 23.5204081632653,102.549701483714 25.7244897959184,102.424976388877 27.9285714285714,101.847483048978 30.1326530612245,101.035303086126 32.3367346938775,101.809440861497 34.5408163265306,103.061416643871 36.7448979591837,101.464080951484 38.9489795918367,101.384922084232 41.1530612244898,101.349573849787 43.3571428571429,101.4772031145 45.5612244897959,100.704740375538 47.765306122449,99.8902748878253 49.969387755102,99.0675725675461 52.1734693877551,99.5180599525837 54.3775510204082,99.4817155770149 56.5816326530612,99.2155725466842 58.7857142857143,98.8078083736579 60.9897959183673,98.7453191064621 63.1938775510204,99.4010489920951 65.3979591836735,100.118760745155 67.6020408163265,100.693292055174 69.8061224489796,100.776090820502 72.0102040816327,100.609591130876 74.2142857142857,101.258148996825 76.4183673469388,101.157639011409 78.6224489795918,101.15023224135 80.8265306122449,100.657492891613 83.030612244898,101.774314935736 85.234693877551,102.063830076788 87.4387755102041,102.646398765165 89.6428571428571,102.606969239344 91.8469387755102,102.64625723064 94.0510204081633,101.864277304305 96.2551020408163,100.961615960623 98.4591836734694,100.157107757892 100.663265306122,101.063710148143 102.867346938775,101.146876408192 105.071428571429,101.581275837711 107.275510204082,100.448673766628 109.479591836735,100.687017427705 111.683673469388,101.034201176339 113.887755102041,101.305513945472 116.091836734694,101.674162046504 118.295918367347,101.897603593945 120.5,101.99549134814 127.75,111.946106659988" style="stroke:#7f3f00;fill:white;stroke-width:0.5;"/>
</g>
</svg>