<?xml version="1.0" standalone="no"?>
<!DOCTYPE svg PUBLIC "-//W3C//DTD SVG 1.1//EN"
  "http://www.w3.org/Graphics/SVG/1.1/DTD/svg11.dtd">
<svg width="216" height="279" version="1.1"
  xmlns="http://www.w3.org/2000/svg">
<g transform="translate( 41, 73)" >
<text x="0" y="-20" font-size="8"><tspan x="0" dy="0em">Mt. Rainier, a volcanic peak near Seattle, Washington, USA</tspan></text><text x="0" y="-10" font-size="8"><tspan x="0" dy="0em">(46.78, -121.91) to (46.94, -121.63): Looking north</tspan></text><line x1="5.25" y1="28.890434967714" x2="127.75" y2="28.890434967714" style="stroke:#007299;fill:none;stroke-width:0.5;"/>
<line x1="5.25" y1="33.9050436386854" x2="127.75" y2="33.9050436386854" style="stroke:#007299;fill:none;stroke-width:0.5;"/>
<line x1="5.25" y1="38.9196523096569" x2="127.75" y2="38.9196523096569" style="stroke:#007299;fill:none;stroke-width:0.5;"/>
<line x1="5.25" y1="43.9342609806284" x2="127.75" y2="43.9342609806284" style="stroke:#007299;fill:none;stroke-width:0.5;"/>
<line x1="5.25" y1="48.9488696515998" x2="127.75" y2="48.9488696515998" style="stroke:#007299;fill:none;stroke-width:0.5;"/>
<line x1="5.25" y1="53.9634783225713" x2="127.75" y2="53.9634783225713" style="stroke:#007299;fill:none;stroke-width:0.5;"/>
<line x1="5.25" y1="58.9780869935428" x2="127.75" y2="58.9780869935428" style="stroke:#007299;fill:none;stroke-width:0.5;"/>
<line x1="5.25" y1="63.9926956645143" x2="127.75" y2="63.9926956645143" style="stroke:#007299;fill:none;stroke-width:0.5;"/>
<line x1="5.25" y1="69.0073043354857" x2="127.75" y2="69.0073043354857" style="stroke:#007299;fill:none;stroke-width:0.5;"/>
<line x1="5.25" y1="74.0219130064572" x2="127.75" y2="74.0219130064572" style="stroke:#007299;fill:none;stroke-width:0.5;"/>
<line x1="5.25" y1="79.0365216774287" x2="127.75" y2="79.0365216774287" style="stroke:#007299;fill:none;stroke-width:0.5;"/>
<line x1="5.25" y1="84.0511303484001" x2="127.75" y2="84.0511303484001" style="stroke:#007299;fill:none;stroke-width:0.5;"/>
<line x1="5.25" y1="89.0657390193716" x2="127.75" y2="89.0657390193716" style="stroke:#007299;fill:none;stroke-width:0.5;"/>
<line x1="5.25" y1="94.0803476903431" x2="127.75" y2="94.0803476903431" style="stroke:#007299;fill:none;stroke-width:0.5;"/>
<line x1="5.25" y1="99.0949563613146" x2="127.75" y2="99.0949563613146" style="stroke:#007299;fill:none;stroke-width:0.5;"/>
<line x1="5.25" y1="104.109565032286" x2="127.75" y2="104.109565032286" style="stroke:#007299;fill:none;stroke-width:0.5;"/>
<polygon points="0,0 133,0 133,133 0,133" style="stroke:#7f3f00;fill:none;stroke-width:0.5;"/>
<polyline points="5.25,28.890434967714 12.5,21.6670554861129 14.7040816326531,20.8574781567669 16.9081632653061,19.7724169685213 19.1122448979592,20.772087564846 21.3163265306122,22.2588303712838 23.5204081632653,23.3609662882354 25.7244897959184,23.6050036963001 27.9285714285714,23.2642897293166 30.1326530612245,22.7079101063688 32.3367346938775,21.4968038594295 34.5408163265306,20.5980947414259 36.7448979591837,20.9301205977491 38.9489795918367,21.2117596888933 41.1530612244898,20.138902668149 43.3571428571429,20.7570295115259 45.5612244897959,21.0419391276215 47.765306122449,22.092873506482 49.969387755102,22.4040975295089 52.1734693877551,22.279210846218 54.3775510204082,22.1450129084384 56.5816326530612,21.3721055637478 58.7857142857143,21.7713623515585 60.9897959183673,22.4839509302001 63.1938775510204,22.5888467082815 65.3979591836735,22.5736267862139 67.6020408163265,22.3310368135896 69.8061224489796,21.5485451797248 72.0102040816327,21.2472053584879 74.2142857142857,20.9462272747331 76.4183673469388,21.097545452175 78.6224489795918,20.9108966635169 80.8265306122449,20.7337366775967 83.030612244898,20.2651158309174 85.234693877551,20.2448797167234 87.4387755102041,20.528774770126 89.6428571428571,21.118457201594 91.8469387755102,21.6949116969759 94.0510204081633,21.6159656065382 96.2551020408163,20.6243837132951 98.4591836734694,20.094354580473 100.663265306122,20.5877874223155 102.867346938775,20.8065804023315 105.071428571429,21.1045670085161 107.275510204082,21.7732822448415 109.479591836735,21.9129662438526 111.683673469388,22.5777370074177 113.887755102041,23.0587831262742 116.091836734694,22.7459579167816 118.295918367347,22.2830824071949 120.5,22.2849311987351 127.75,28.890434967714" style="stroke:#7f3f00;fill:white;stroke-width:0.5;"/>
<polyline points="5.25,33.9050436386854 12.5,25.5756588309698 14.7040816326531,26.3109947273834 16.9081632653061,26.600296900699 19.1122448979592,26.9729589011315 21.3163265306122,28.1537885438724 23.5204081632653,28.2578783637287 25.7244897959184,27.8019902577451 27.9285714285714,27.2509161148995 30.1326530612245,26.5708926193336 32.3367346938775,26.2191394354913 34.5408163265306,24.9311492630931 36.7448979591837,24.7108640700249 38.9489795918367,25.1190819291595 41.1530612244898,25.5892490307411 43.3571428571429,25.5678291492482 45.5612244897959,25.4170587833057 47.765306122449,25.7689187672439 49.969387755102,26.483293389605 52.1734693877551,26.1161671541743 54.3775510204082,26.8037614837412 56.5816326530612,26.7076486365532 58.7857142857143,26.2151495583603 60.9897959183673,26.2708689671128 63.1938775510204,25.9888907865962 65.3979591836735,25.6046095291319 67.6020408163265,25.7004168566944 69.8061224489796,25.8125111356831 72.0102040816327,26.4011204283735 74.2142857142857,26.6079419825334 76.4183673469388,25.4529692339252 78.6224489795918,25.0920547812734 80.8265306122449,25.1251239961034 83.030612244898,25.5606528296181 85.234693877551,24.934585964214 87.4387755102041,24.7669768770383 89.6428571428571,24.9130898521258 91.8469387755102,25.6150983775669 94.0510204081633,25.9154917788392 96.2551020408163,24.6122307577412 98.4591836734694,24.7256784951896 100.663265306122,25.8098741879356 102.867346938775,25.9730793233406 105.071428571429,26.0986121604115 107.275510204082,25.8039335252756 109.479591836735,26.1313674037604 111.683673469388,27.2954264145772 113.887755102041,27.2855157504031 116.091836734694,27.2601901321032 118.295918367347,27.0870656645876 120.5,26.8232709945096 127.75,33.9050436386854" style="stroke:#7f3f00;fill:white;stroke-width:0.5;"/>
<polyline points="5.25,38.9196523096569 12.5,31.0460838652866 14.7040816326531,31.1652421212795 16.9081632653061,32.2239036031755 19.1122448979592,31.8103530791899 21.3163265306122,31.8549561049597 23.5204081632653,31.881171055318 25.7244897959184,32.6137922645704 27.9285714285714,32.6282505949319 30.1326530612245,32.4585466476024 32.3367346938775,31.953360135139 34.5408163265306,31.645222588147 36.7448979591837,30.8497394277861 38.9489795918367,30.7003661801649 41.1530612244898,30.3461412015273 43.3571428571429,29.9558066499958 45.5612244897959,29.6453469360673 47.765306122449,30.3129413791333 49.969387755102,30.3605310524216 52.1734693877551,30.3001051009951 54.3775510204082,30.2298504886229 56.5816326530612,30.8583637793293 58.7857142857143,31.0131006338401 60.9897959183673,30.1237397537478 63.1938775510204,30.0394449023213 65.3979591836735,30.036068479631 67.6020408163265,29.8916990274662 69.8061224489796,29.7507994556298 72.0102040816327,29.5301522771601 74.2142857142857,30.2274774298498 76.4183673469388,30.6133147110847 78.6224489795918,29.9695521987664 80.8265306122449,29.2893698115731 83.030612244898,29.4765145734191 85.234693877551,29.0124702527452 87.4387755102041,29.3045381066797 89.6428571428571,29.2439512054603 91.8469387755102,29.5085558386381 94.0510204081633,29.3832934049339 96.2551020408163,29.4647058134157 98.4591836734694,30.51662846284 100.663265306122,30.4532407121697 102.867346938775,30.0592807935431 105.071428571429,30.1001207529299 107.275510204082,30.771781737202 109.479591836735,31.9034517974451 111.683673469388,32.018693322303 113.887755102041,31.5471021646717 116.091836734694,31.197713803438 118.295918367347,31.1235842258613 120.5,30.8492707386847 127.75,38.9196523096569" style="stroke:#7f3f00;fill:white;stroke-width:0.5;"/>
<polyline points="5.25,43.9342609806284 12.5,37.0217139728393 14.7040816326531,38.0043812231194 16.9081632653061,37.5266866085319 19.1122448979592,37.0818102946804 21.3163265306122,37.5842860618862 23.5204081632653,37.470293541728 25.7244897959184,37.0107466674239 27.9285714285714,36.4891632970462 30.1326530612245,36.077266761949 32.3367346938775,35.9016086466289 34.5408163265306,35.4755374282939 36.7448979591837,35.3581177152674 38.9489795918367,35.7127982462495 41.1530612244898,36.0676582338201 43.3571428571429,35.9415314032623 45.5612244897959,35.615960005986 47.765306122449,34.7778188306877 49.969387755102,33.8579565450152 52.1734693877551,34.1080542509781 54.3775510204082,33.8566223507006 56.5816326530612,33.9395674324568 58.7857142857143,33.6415975469314 60.9897959183673,33.9849124502774 63.1938775510204,34.4063854041495 65.3979591836735,33.7931818942202 67.6020408163265,33.6069846918227 69.8061224489796,33.387442155594 72.0102040816327,32.9466529975071 74.2142857142857,33.0776224185892 76.4183673469388,34.1077878211411 78.6224489795918,34.1919535375259 80.8265306122449,34.0264769156219 83.030612244898,33.2706954023483 85.234693877551,32.7565930133747 87.4387755102041,33.7061583961399 89.6428571428571,33.6346930916847 91.8469387755102,33.6826907979313 94.0510204081633,33.4368537049271 96.2551020408163,34.2405112938627 98.4591836734694,35.2779965681057 100.663265306122,35.4483568404879 102.867346938775,35.7174760268326 105.071428571429,35.9980581103209 107.275510204082,36.3281280128136 109.479591836735,36.3465016359772 111.683673469388,35.6682452773018 113.887755102041,35.2063857455721 116.091836734694,34.9822382594846 118.295918367347,35.2258751520347 120.5,35.6366693454432 127.75,43.9342609806284" style="stroke:#7f3f00;fill:white;stroke-width:0.5;"/>
<polyline points="5.25,48.9488696515998 12.5,42.9148655095819 14.7040816326531,41.8302129516981 16.9081632653061,40.9574938840036 19.1122448979592,40.8468672722964 21.3163265306122,41.021066535765 23.5204081632653,40.554517900211 25.7244897959184,40.2007619672001 27.9285714285714,40.3479855341175 30.1326530612245,40.5412191600118 32.3367346938775,40.8829632060523 34.5408163265306,41.1931994597151 36.7448979591837,40.7301541804177 38.9489795918367,40.0690091991756 41.1530612244898,40.1186312676328 43.3571428571429,40.2287503519359 45.5612244897959,39.7859269477045 47.765306122449,39.009885539594 49.969387755102,38.0680828467985 52.1734693877551,37.8630511192137 54.3775510204082,37.3577188467567 56.5816326530612,37.2900958484253 58.7857142857143,37.3431444996614 60.9897959183673,36.9835643438561 63.1938775510204,37.1440337574901 65.3979591836735,36.6520634807519 67.6020408163265,36.6107420273679 69.8061224489796,36.6451369766873 72.0102040816327,36.4621371436213 74.2142857142857,36.8348586836475 76.4183673469388,37.3050270600965 78.6224489795918,37.6162946219979 80.8265306122449,36.8515851636692 83.030612244898,36.518776607065 85.234693877551,36.6523158281735 87.4387755102041,37.1278198909999 89.6428571428571,37.6577265092711 91.8469387755102,38.6605409434634 94.0510204081633,39.4406788848873 96.2551020408163,39.5381729839949 98.4591836734694,39.4924371554414 100.663265306122,39.0530155387924 102.867346938775,39.043562240545 105.071428571429,38.5905916046762 107.275510204082,38.5821843055917 109.479591836735,39.0872791244045 111.683673469388,39.1665944800126 113.887755102041,39.3992430002406 116.091836734694,39.8080694521081 118.295918367347,39.733011685291 120.5,39.982238712428 127.75,48.9488696515998" style="stroke:#7f3f00;fill:white;stroke-width:0.5;"/>
<polyline points="5.25,53.9634783225713 12.5,47.6017469743506 14.7040816326531,47.0481140104156 16.9081632653061,46.8114278583627 19.1122448979592,47.1491393657448 21.3163265306122,46.9481143792243 23.5204081632653,46.1307953718941 25.7244897959184,45.6630512254406 27.9285714285714,45.3597039598408 30.1326530612245,45.0293240689377 32.3367346938775,44.404820056108 34.5408163265306,43.8827969359364 36.7448979591837,43.6326917680015 38.9489795918367,43.8810214703129 41.1530612244898,44.3936712732989 43.3571428571429,44.0828925378651 45.5612244897959,43.6225940616198 47.765306122449,43.1122931967017 49.969387755102,42.7314097239494 52.1734693877551,41.9557284318599 54.3775510204082,41.4710299334723 56.5816326530612,40.9850138391811 58.7857142857143,40.565367466754 60.9897959183673,39.5545358658344 63.1938775510204,39.9431471420745 65.3979591836735,39.2940924011282 67.6020408163265,39.598066570693 69.8061224489796,38.8400950777127 72.0102040816327,39.6718903125423 74.2142857142857,39.6707462815359 76.4183673469388,40.1182413463299 78.6224489795918,40.1053027581465 80.8265306122449,40.0281102602311 83.030612244898,40.0401982353417 85.234693877551,40.7562622211377 87.4387755102041,41.6195464072316 89.6428571428571,41.7963930034766 91.8469387755102,43.1287889109246 94.0510204081633,43.4805831574926 96.2551020408163,42.3549934479497 98.4591836734694,42.9663287988236 100.663265306122,42.5995286062978 102.867346938775,42.4630856647594 105.071428571429,42.7308652693911 107.275510204082,42.8699540631765 109.479591836735,43.9191871127888 111.683673469388,44.8956362751312 113.887755102041,45.2384215213185 116.091836734694,45.2492646563986 118.295918367347,45.2928412803562 120.5,46.0437954107197 127.75,53.9634783225713" style="stroke:#7f3f00;fill:white;stroke-width:0.5;"/>
<polyline points="5.25,58.9780869935428 12.5,51.4478532840429 14.7040816326531,51.2488874469597 16.9081632653061,52.0299832375747 19.1122448979592,52.4609940820506 21.3163265306122,52.3595296465656 23.5204081632653,52.0657682848058 25.7244897959184,51.761535275004 27.9285714285714,51.5766229324957 30.1326530612245,51.7897735771323 32.3367346938775,51.4628443733777 34.5408163265306,50.4873537017258 36.7448979591837,49.211360072751 38.9489795918367,48.0143592153783 41.1530612244898,48.1543119456191 43.3571428571429,47.4998058674845 45.5612244897959,46.8901678605305 47.765306122449,46.4932708660591 49.969387755102,46.4545454491119 52.1734693877551,46.172901689828 54.3775510204082,45.6701039254545 56.5816326530612,45.1504185107587 58.7857142857143,43.7327938316701 60.9897959183673,42.9474170799794 63.1938775510204,42.6514054247828 65.3979591836735,41.5116880380712 67.6020408163265,40.967722045355 69.8061224489796,40.9975676633274 72.0102040816327,41.0051018229781 74.2142857142857,41.7203926431183 76.4183673469388,43.0401666648112 78.6224489795918,42.9285012131354 80.8265306122449,43.8694661712821 83.030612244898,43.9275821060299 85.234693877551,44.8662039532089 87.4387755102041,45.5023407241743 89.6428571428571,46.0007159917292 91.8469387755102,46.294868451496 94.0510204081633,45.9361379134961 96.2551020408163,46.4326866905674 98.4591836734694,46.488831476319 100.663265306122,46.6334320659141 102.867346938775,47.1960253037592 105.071428571429,47.9710516870566 107.275510204082,48.6561948275586 109.479591836735,48.6397434175087 111.683673469388,49.0389536580175 113.887755102041,49.7270354002729 116.091836734694,50.1952340593467 118.295918367347,50.2338853520718 120.5,50.2559971485743 127.75,58.9780869935428" style="stroke:#7f3f00;fill:white;stroke-width:0.5;"/>
<polyline points="5.25,63.9926956645143 12.5,58.3298215865686 14.7040816326531,58.5607806658091 16.9081632653061,58.0118830323004 19.1122448979592,57.5391759405237 21.3163265306122,57.0423385174846 23.5204081632653,56.3240667706857 25.7244897959184,55.958351815783 27.9285714285714,55.9179272193391 30.1326530612245,55.7454647886375 32.3367346938775,55.6153371468608 34.5408163265306,55.4737018317446 36.7448979591837,54.6453676368479 38.9489795918367,54.1357237808854 41.1530612244898,53.2214131135006 43.3571428571429,52.8079552358881 45.5612244897959,52.4746054400569 47.765306122449,51.7895201426846 49.969387755102,51.2984644140107 52.1734693877551,50.7496011960325 54.3775510204082,50.1242114116987 56.5816326530612,49.2748040030699 58.7857142857143,48.1848384887668 60.9897959183673,48.0881248850549 63.1938775510204,47.1682539149264 65.3979591836735,45.7091515711147 67.6020408163265,44.7013161665705 69.8061224489796,43.9342609806284 72.0102040816327,44.147363231539 74.2142857142857,44.8402881313614 76.4183673469388,46.0296819566111 78.6224489795918,47.2360438068728 80.8265306122449,48.2325420441307 83.030612244898,48.9108642256934 85.234693877551,49.7247421188289 87.4387755102041,50.2482682799812 89.6428571428571,49.8820041309675 91.8469387755102,50.0472348292151 94.0510204081633,50.5605366779553 96.2551020408163,51.1132532092169 98.4591836734694,51.350991774767 100.663265306122,51.4988258189434 102.867346938775,51.6575015181763 105.071428571429,52.000160701746 107.275510204082,52.704067189568 109.479591836735,53.4978088143525 111.683673469388,53.1866085521343 113.887755102041,53.807925501862 116.091836734694,54.1503511401253 118.295918367347,54.0231313064212 120.5,53.3600076835742 127.75,63.9926956645143" style="stroke:#7f3f00;fill:white;stroke-width:0.5;"/>
<polyline points="5.25,69.0073043354857 12.5,62.2503495907542 14.7040816326531,62.0611969977751 16.9081632653061,61.7079358666769 19.1122448979592,61.2247418473823 21.3163265306122,61.090613739046 23.5204081632653,60.9480685775985 25.7244897959184,60.5797990768604 27.9285714285714,59.8592544126555 30.1326530612245,59.0171728569942 32.3367346938775,59.1043197853846 34.5408163265306,59.0589343826237 36.7448979591837,58.8553564280035 38.9489795918367,59.8050260625652 41.1530612244898,59.4072846997182 43.3571428571429,58.6820568707194 45.5612244897959,58.1653518792358 47.765306122449,57.4136458934355 49.969387755102,55.8944742371432 52.1734693877551,55.3705213936029 54.3775510204082,54.2469709736282 56.5816326530612,52.7533553281949 58.7857142857143,51.5498591373755 60.9897959183673,51.1947046052737 63.1938775510204,50.2698492950482 65.3979591836735,49.3840502106032 67.6020408163265,49.7272772119291 69.8061224489796,49.8817023815554 72.0102040816327,51.2247427479754 74.2142857142857,51.9375482225802 76.4183673469388,52.6204575896749 78.6224489795918,53.2803159497265 80.8265306122449,54.1580693401717 83.030612244898,55.2114518639435 85.234693877551,55.7337345439874 87.4387755102041,56.2629881678164 89.6428571428571,56.7399635218353 91.8469387755102,57.138050143783 94.0510204081633,57.453206156374 96.2551020408163,57.6435477048857 98.4591836734694,58.3265586242763 100.663265306122,58.8261882304875 102.867346938775,58.9851442554585 105.071428571429,58.8111226387974 107.275510204082,59.2924900864089 109.479591836735,59.5385207556235 111.683673469388,59.5244268925408 113.887755102041,59.4957555344788 116.091836734694,59.7327528145477 118.295918367347,60.3234106961886 120.5,59.4331551723597 127.75,69.0073043354857" style="stroke:#7f3f00;fill:white;stroke-width:0.5;"/>
<polyline points="5.25,74.0219130064572 12.5,66.1429600176387 14.7040816326531,65.8489479822337 16.9081632653061,65.4543111490573 19.1122448979592,65.157315033744 21.3163265306122,65.4431215021575 23.5204081632653,64.8575597929714 25.7244897959184,65.081275912222 27.9285714285714,65.4526609523492 30.1326530612245,65.9889665908004 32.3367346938775,66.6904181693239 34.5408163265306,66.6005766030655 36.7448979591837,66.4476884419671 38.9489795918367,65.1066451362887 41.1530612244898,64.8739217231055 43.3571428571429,64.2049952191289 45.5612244897959,63.2286981635597 47.765306122449,61.9452830850333 49.969387755102,61.6609701406303 52.1734693877551,61.1246276410835 54.3775510204082,60.5841455216662 56.5816326530612,60.107241989927 58.7857142857143,58.9254575043003 60.9897959183673,57.9204226969438 63.1938775510204,58.0138456094463 65.3979591836735,58.5327259080629 67.6020408163265,59.3091315823976 69.8061224489796,59.7606631932355 72.0102040816327,59.1176732796404 74.2142857142857,59.7376124359626 76.4183673469388,60.0240781847445 78.6224489795918,60.3792048353805 80.8265306122449,60.5106210718828 83.030612244898,60.458281681779 85.234693877551,61.1017312481244 87.4387755102041,62.1002746328592 89.6428571428571,62.8846917128153 91.8469387755102,63.296259516176 94.0510204081633,63.8730929090779 96.2551020408163,64.2938308961163 98.4591836734694,64.6051533943654 100.663265306122,64.6711540134395 102.867346938775,64.7210155749723 105.071428571429,63.8292957507975 107.275510204082,64.0830702418906 109.479591836735,64.4607973704062 111.683673469388,64.7153292515558 113.887755102041,65.3057728444907 116.091836734694,65.7559974045401 118.295918367347,66.1670077027561 120.5,66.4949980904996 127.75,74.0219130064572" style="stroke:#7f3f00;fill:white;stroke-width:0.5;"/>
<polyline points="5.25,79.0365216774287 12.5,71.4843595342497 14.7040816326531,71.3660123469018 16.9081632653061,71.0937390464228 19.1122448979592,71.0030463338278 21.3163265306122,70.9972777363925 23.5204081632653,71.6969858012328 25.7244897959184,72.3353370366211 27.9285714285714,72.7845312221423 30.1326530612245,72.3997495667454 32.3367346938775,71.8184610025377 34.5408163265306,71.1386649808513 36.7448979591837,69.8552553369187 38.9489795918367,68.7628641184604 41.1530612244898,68.5989654316391 43.3571428571429,68.6800447014265 45.5612244897959,68.2113995102697 47.765306122449,68.0182929637138 49.969387755102,67.8780062982642 52.1734693877551,67.89085097854 54.3775510204082,67.4119169790408 56.5816326530612,66.7423402013028 58.7857142857143,65.5255983192507 60.9897959183673,65.1396337486931 63.1938775510204,65.9483848581068 65.3979591836735,66.4095370792273 67.6020408163265,66.6268486590312 69.8061224489796,66.6828146467892 72.0102040816327,66.6739444698727 74.2142857142857,66.0444602115062 76.4183673469388,66.7014652782013 78.6224489795918,66.9838033044361 80.8265306122449,67.2704215534371 83.030612244898,67.3746525389384 85.234693877551,67.7076263203088 87.4387755102041,68.2575011338125 89.6428571428571,68.2826487343233 91.8469387755102,68.9927434264809 94.0510204081633,68.9354052629305 96.2551020408163,68.6650113285854 98.4591836734694,69.6142069655571 100.663265306122,70.2359102105002 102.867346938775,70.3599030401277 105.071428571429,70.3638315712823 107.275510204082,68.8693551801402 109.479591836735,68.9444776750443 111.683673469388,69.0427813178836 113.887755102041,68.0064106757145 116.091836734694,68.5432178029648 118.295918367347,69.015717517706 120.5,69.7066415714249 127.75,79.0365216774287" style="stroke:#7f3f00;fill:white;stroke-width:0.5;"/>
<polyline points="5.25,84.0511303484001 12.5,77.2199027384381 14.7040816326531,76.7956222343116 16.9081632653061,76.1365878244231 19.1122448979592,76.2206655863502 21.3163265306122,77.1492846330894 23.5204081632653,77.7698117131566 25.7244897959184,78.1117036290328 27.9285714285714,77.3188661510616 30.1326530612245,75.913418199177 32.3367346938775,75.3604511409367 34.5408163265306,74.8189899516457 36.7448979591837,74.6256467768702 38.9489795918367,75.2518913015491 41.1530612244898,75.0654183988811 43.3571428571429,75.2261428767396 45.5612244897959,74.9603757354165 47.765306122449,74.1141693551659 49.969387755102,73.4429575666953 52.1734693877551,72.2981118932543 54.3775510204082,71.5251630373344 56.5816326530612,71.5382615110868 58.7857142857143,71.7026313525935 60.9897959183673,72.2144775557824 63.1938775510204,72.8888927393525 65.3979591836735,73.2177528264117 67.6020408163265,73.1371509511032 69.8061224489796,72.9976346015445 72.0102040816327,72.7653509519979 74.2142857142857,72.8680218011456 76.4183673469388,72.9372825469628 78.6224489795918,73.5666734083835 80.8265306122449,73.6795428737566 83.030612244898,73.760995060179 85.234693877551,73.881287598044 87.4387755102041,72.751527336777 89.6428571428571,73.3501628429464 91.8469387755102,73.8635360550123 94.0510204081633,74.6050656601082 96.2551020408163,75.112523957506 98.4591836734694,75.2762129300217 100.663265306122,75.3091746158298 102.867346938775,75.7411272146183 105.071428571429,76.1360387455489 107.275510204082,76.2064268981961 109.479591836735,76.3731590715936 111.683673469388,76.0844606376911 113.887755102041,75.5451223660198 116.091836734694,75.3142519398048 118.295918367347,75.0474251281368 120.5,75.3390816442155 127.75,84.0511303484001" style="stroke:#7f3f00;fill:white;stroke-width:0.5;"/>
<polyline points="5.25,89.0657390193716 12.5,82.6963565656894 14.7040816326531,82.665964594993 16.9081632653061,82.7184650373483 19.1122448979592,83.1782879220535 21.3163265306122,83.6937015828214 23.5204081632653,82.726394528985 25.7244897959184,81.9652510513614 27.9285714285714,81.6050366895733 30.1326530612245,81.5312240530192 32.3367346938775,81.6657658425102 34.5408163265306,82.0160139959191 36.7448979591837,81.3672582324048 38.9489795918367,81.2573847184313 41.1530612244898,80.6172276192233 43.3571428571429,79.3897658739625 45.5612244897959,78.7968810036442 47.765306122449,78.4267536101627 49.969387755102,78.2501519767405 52.1734693877551,77.8192398368378 54.3775510204082,77.6846433905975 56.5816326530612,77.8398594669342 58.7857142857143,78.1127953213653 60.9897959183673,78.7383686064631 63.1938775510204,79.3288841581155 65.3979591836735,79.1826412765016 67.6020408163265,78.9235394339243 69.8061224489796,79.1130642366447 72.0102040816327,79.2806611446446 74.2142857142857,79.3811204697786 76.4183673469388,79.5374362221691 78.6224489795918,79.8895668026073 80.8265306122449,79.9587735196656 83.030612244898,79.8627846619533 85.234693877551,79.3364618098078 87.4387755102041,78.3335291451049 89.6428571428571,78.1077363826042 91.8469387755102,77.9816282181389 94.0510204081633,78.3298552885213 96.2551020408163,78.1848104355211 98.4591836734694,78.2263800823788 100.663265306122,78.6165426775752 102.867346938775,79.1957915953219 105.071428571429,79.4261266912041 107.275510204082,79.9192451293542 109.479591836735,80.2691923934497 111.683673469388,80.6853739830017 113.887755102041,80.8588109894624 116.091836734694,81.295980067026 118.295918367347,81.5090847365692 120.5,81.4509396779782 127.75,89.0657390193716" style="stroke:#7f3f00;fill:white;stroke-width:0.5;"/>
<polyline points="5.25,94.0803476903431 12.5,89.0803476903431 14.7040816326531,89.0476759862821 16.9081632653061,89.0004191663154 19.1122448979592,88.9041220631182 21.3163265306122,88.8031828005974 23.5204081632653,88.7453435199334 25.7244897959184,88.4997450889247 27.9285714285714,88.3352086082604 30.1326530612245,87.8386616729194 32.3367346938775,87.2708005087074 34.5408163265306,86.2960575094602 36.7448979591837,85.9469749780213 38.9489795918367,85.958574211798 41.1530612244898,85.4130674574666 43.3571428571429,85.0693191043604 45.5612244897959,84.716845407534 47.765306122449,84.35603134215 49.969387755102,84.0276838152199 52.1734693877551,83.6799164620782 54.3775510204082,83.7748124598944 56.5816326530612,83.8647989747004 58.7857142857143,83.8277615185509 60.9897959183673,84.1257715897907 63.1938775510204,84.7224644320659 65.3979591836735,85.0266504678102 67.6020408163265,84.6295054305921 69.8061224489796,84.6483881519862 72.0102040816327,84.8292283387008 74.2142857142857,85.2470989096052 76.4183673469388,85.5236326774171 78.6224489795918,85.5961311809158 80.8265306122449,85.5109438254717 83.030612244898,85.6686151225201 85.234693877551,85.6284767610481 87.4387755102041,84.6254123352825 89.6428571428571,84.3026545589955 91.8469387755102,84.3838444124163 94.0510204081633,84.1919249557217 96.2551020408163,84.1327890363083 98.4591836734694,84.341596851299 100.663265306122,84.1421676002008 102.867346938775,83.9653039168507 105.071428571429,83.5732006127142 107.275510204082,83.9580451528043 109.479591836735,84.2630247296025 111.683673469388,84.3079102719287 113.887755102041,84.2046127953389 116.091836734694,84.1829091663656 118.295918367347,84.1271492165718 120.5,84.1535682024706 127.75,94.0803476903431" style="stroke:#7f3f00;fill:white;stroke-width:0.5;"/>
<polyline points="5.25,99.0949563613146 12.5,92.8599511326658 14.7040816326531,92.529458105344 16.9081632653061,91.5231551118778 19.1122448979592,91.7378731481601 21.3163265306122,91.7338992652237 23.5204081632653,91.758263263588 25.7244897959184,91.5131005207235 27.9285714285714,91.5319540774979 30.1326530612245,91.3120463458001 32.3367346938775,91.0106680622172 34.5408163265306,90.8233095592655 36.7448979591837,90.4201230703416 38.9489795918367,89.6643591232596 41.1530612244898,89.5539672487705 43.3571428571429,89.7162255996778 45.5612244897959,90.0917573791322 47.765306122449,90.2190341727695 49.969387755102,89.7687601892157 52.1734693877551,89.6169115269895 54.3775510204082,89.9617846718182 56.5816326530612,89.9793752923101 58.7857142857143,90.445480187472 60.9897959183673,90.6543735915503 63.1938775510204,90.5408374953478 65.3979591836735,90.4181992312716 67.6020408163265,90.2279698203573 69.8061224489796,89.2829034923487 72.0102040816327,89.2201192291157 74.2142857142857,88.5179959990591 76.4183673469388,88.5476112284457 78.6224489795918,90.0519221949784 80.8265306122449,91.2164355297458 83.030612244898,91.2574548509702 85.234693877551,91.4937366106423 87.4387755102041,90.9698915698399 89.6428571428571,90.1089011387897 91.8469387755102,89.2193176357233 94.0510204081633,88.5219796228328 96.2551020408163,89.5318956723109 98.4591836734694,90.1389850316105 100.663265306122,88.840794951695 102.867346938775,88.8106940179683 105.071428571429,88.6275509952809 107.275510204082,88.6759550945798 109.479591836735,89.4017138883219 111.683673469388,89.4670752345602 113.887755102041,88.9385065042175 116.091836734694,89.9031723496239 118.295918367347,89.6631283559161 120.5,89.7003553928356 127.75,99.0949563613146" style="stroke:#7f3f00;fill:white;stroke-width:0.5;"/>
<polyline points="5.25,104.109565032286 12.5,96.5911194544724 14.7040816326531,97.1518729185774 16.9081632653061,97.4986551969969 19.1122448979592,97.1623769464256 21.3163265306122,96.7726660885633 23.5204081632653,96.3871330068399 25.7244897959184,96.2295427637601 27.9285714285714,96.0949128128057 30.1326530612245,96.0965111632554 32.3367346938775,96.0134583243278 34.5408163265306,95.5588023135636 36.7448979591837,94.7545085942564 38.9489795918367,94.1986720564954 41.1530612244898,95.1633478106057 43.3571428571429,95.1962164556428 45.5612244897959,95.9901026360777 47.765306122449,96.4306023602963 49.969387755102,96.2696828558846 52.1734693877551,96.235430630383 54.3775510204082,95.8247420879277 56.5816326530612,95.8743497146721 58.7857142857143,96.7623949908728 60.9897959183673,96.8541454161058 63.1938775510204,96.4123801651038 65.3979591836735,95.3453249301088 67.6020408163265,94.7354223541422 69.8061224489796,94.4681137898453 72.0102040816327,94.2676715051963 74.2142857142857,94.2719902860449 76.4183673469388,94.5553182280298 78.6224489795918,95.1958916371507 80.8265306122449,95.321393890501 83.030612244898,95.3325851726591 85.234693877551,96.4349795794282 87.4387755102041,96.84835789572 89.6428571428571,97.1749378879442 91.8469387755102,96.8773292026245 94.0510204081633,95.956583247787 96.2551020408163,95.3637922642582 98.4591836734694,95.5053767810603 100.663265306122,94.6887872967955 102.867346938775,93.907291225727 105.071428571429,94.3615879862165 107.275510204082,94.4932056026111 109.479591836735,94.4717000636001 111.683673469388,94.4220359662083 113.887755102041,95.3342764833419 116.091836734694,95.601413969817 118.295918367347,95.5968390964918 120.5,95.1983467487233 127.75,104.109565032286" style="stroke:#7f3f00;fill:white;stroke-width:0.5;"/>
</g>
</svg>