<?xml version="1.0" standalone="no"?>
<!DOCTYPE svg PUBLIC "-//W3C//DTD SVG 1.1//EN"
  "http://www.w3.org/Graphics/SVG/1.1/DTD/svg11.dtd">
<svg width="216" height="279" version="1.1"
  xmlns="http://www.w3.org/2000/svg">
<g transform="translate( 41, 73)" >
<text x="0" y="-30" font-size="8"><tspan x="0" dy="0em">Steens Mountain, a fault-block mountain</tspan><tspan x="0" dy="1em">in barren land in SE Oregon, USA</tspan></text><text x="0" y="-10" font-size="8"><tspan x="0" dy="0em">(42.39, -118.65) to (42.74, -118.24): Looking north</tspan></text><line x1="5.25" y1="11.291354678671" x2="127.75" y2="11.291354678671" style="stroke:#007299;fill:none;stroke-width:0.5;"/>
<line x1="5.25" y1="18.6525073881816" x2="127.75" y2="18.6525073881816" style="stroke:#007299;fill:none;stroke-width:0.5;"/>
<line x1="5.25" y1="26.0136600976921" x2="127.75" y2="26.0136600976921" style="stroke:#007299;fill:none;stroke-width:0.5;"/>
<line x1="5.25" y1="33.3748128072026" x2="127.75" y2="33.3748128072026" style="stroke:#007299;fill:none;stroke-width:0.5;"/>
<line x1="5.25" y1="40.7359655167132" x2="127.75" y2="40.7359655167132" style="stroke:#007299;fill:none;stroke-width:0.5;"/>
<line x1="5.25" y1="48.0971182262237" x2="127.75" y2="48.0971182262237" style="stroke:#007299;fill:none;stroke-width:0.5;"/>
<line x1="5.25" y1="55.4582709357342" x2="127.75" y2="55.4582709357342" style="stroke:#007299;fill:none;stroke-width:0.5;"/>
<line x1="5.25" y1="62.8194236452447" x2="127.75" y2="62.8194236452447" style="stroke:#007299;fill:none;stroke-width:0.5;"/>
<line x1="5.25" y1="70.1805763547553" x2="127.75" y2="70.1805763547553" style="stroke:#007299;fill:none;stroke-width:0.5;"/>
<line x1="5.25" y1="77.5417290642658" x2="127.75" y2="77.5417290642658" style="stroke:#007299;fill:none;stroke-width:0.5;"/>
<line x1="5.25" y1="84.9028817737763" x2="127.75" y2="84.9028817737763" style="stroke:#007299;fill:none;stroke-width:0.5;"/>
<line x1="5.25" y1="92.2640344832868" x2="127.75" y2="92.2640344832868" style="stroke:#007299;fill:none;stroke-width:0.5;"/>
<line x1="5.25" y1="99.6251871927974" x2="127.75" y2="99.6251871927974" style="stroke:#007299;fill:none;stroke-width:0.5;"/>
<line x1="5.25" y1="106.986339902308" x2="127.75" y2="106.986339902308" style="stroke:#007299;fill:none;stroke-width:0.5;"/>
<line x1="5.25" y1="114.347492611818" x2="127.75" y2="114.347492611818" style="stroke:#007299;fill:none;stroke-width:0.5;"/>
<line x1="5.25" y1="121.708645321329" x2="127.75" y2="121.708645321329" style="stroke:#007299;fill:none;stroke-width:0.5;"/>
<polygon points="0,0 133,0 133,133 0,133" style="stroke:#7f3f00;fill:none;stroke-width:0.5;"/>
<polyline points="5.25,11.291354678671 12.5,3.30664218324223 14.7040816326531,4.89182190448504 16.9081632653061,5.68187093892579 19.1122448979592,5.8175670731176 21.3163265306122,5.8652865432465 23.5204081632653,5.78252853882869 25.7244897959184,5.67324996222654 27.9285714285714,5.8547876467943 30.1326530612245,5.88883743977847 32.3367346938775,5.96023389510703 34.5408163265306,5.90793600825564 36.7448979591837,5.90479194527814 38.9489795918367,5.94239466635006 41.1530612244898,5.93935615628739 43.3571428571429,5.84123086871527 45.5612244897959,6.05093694817155 47.765306122449,5.99516798320646 49.969387755102,5.99345639800864 52.1734693877551,5.98065841590039 54.3775510204082,5.92321071401252 56.5816326530612,5.87572618977018 58.7857142857143,5.50714130034804 60.9897959183673,3.69165772778732 63.1938775510204,4.25230998259519 65.3979591836735,3.12062413623631 67.6020408163265,3.60152306846771 69.8061224489796,4.04904588110771 72.0102040816327,4.26280784789173 74.2142857142857,4.5860070246614 76.4183673469388,4.2873235634003 78.6224489795918,4.58500674542848 80.8265306122449,4.10810042603078 83.030612244898,4.24063420728251 85.234693877551,4.40165336741707 87.4387755102041,4.70235989324029 89.6428571428571,4.95364546586635 91.8469387755102,5.26532561536133 94.0510204081633,5.24930950604773 96.2551020408163,5.38048737163369 98.4591836734694,5.40260719818867 100.663265306122,5.38746529436084 102.867346938775,5.35981944359379 105.071428571429,5.4169767143508 107.275510204082,5.37620730354 109.479591836735,5.25183750447524 111.683673469388,5.31495296419499 113.887755102041,5.34529755872615 116.091836734694,5.33256715092213 118.295918367347,5.32098494347664 120.5,5.36078978466643 127.75,11.291354678671" style="stroke:#7f3f00;fill:white;stroke-width:0.5;"/>
<polyline points="5.25,18.6525073881816 12.5,9.97259653523524 14.7040816326531,11.9502896958481 16.9081632653061,13.0020184645617 19.1122448979592,13.1048357340011 21.3163265306122,13.18467433322 23.5204081632653,13.2179668357573 25.7244897959184,13.3283624196943 27.9285714285714,13.1658493514222 30.1326530612245,13.1524151742108 32.3367346938775,13.2833622589029 34.5408163265306,13.2088048313341 36.7448979591837,13.2645227316626 38.9489795918367,13.2310676283855 41.1530612244898,13.2635749357349 43.3571428571429,13.3407625452043 45.5612244897959,13.2895846040795 47.765306122449,13.3044747148721 49.969387755102,13.2995049996504 52.1734693877551,13.3407763589405 54.3775510204082,13.3218404707989 56.5816326530612,13.3462147737255 58.7857142857143,13.1886275192198 60.9897959183673,13.2651829664906 63.1938775510204,13.2892566082287 65.3979591836735,13.1395623394488 67.6020408163265,13.1793205482811 69.8061224489796,12.7015856809431 72.0102040816327,12.1804506616238 74.2142857142857,12.1960579736066 76.4183673469388,12.206538053906 78.6224489795918,12.3975642999636 80.8265306122449,11.8541809448935 83.030612244898,11.8130433642143 85.234693877551,12.2405178082255 87.4387755102041,12.3419371489007 89.6428571428571,12.3669525340702 91.8469387755102,12.5660006110236 94.0510204081633,12.8139112748515 96.2551020408163,12.7622848097473 98.4591836734694,12.7946005302953 100.663265306122,12.7482659252287 102.867346938775,12.7931790433813 105.071428571429,12.7734645782833 107.275510204082,12.8080185418941 109.479591836735,12.794742887755 111.683673469388,12.8626636909222 113.887755102041,12.820048834702 116.091836734694,12.8138556123813 118.295918367347,12.8414115341199 120.5,12.8469977835522 127.75,18.6525073881816" style="stroke:#7f3f00;fill:white;stroke-width:0.5;"/>
<polyline points="5.25,26.0136600976921 12.5,17.6299723948231 14.7040816326531,18.0073008478742 16.9081632653061,19.3006942335807 19.1122448979592,20.1422170366879 21.3163265306122,20.2496357303393 23.5204081632653,20.5602855336999 25.7244897959184,20.5837616404388 27.9285714285714,20.4716258825908 30.1326530612245,20.5016917970272 32.3367346938775,20.5356243594392 34.5408163265306,20.5822408225188 36.7448979591837,20.6128738378172 38.9489795918367,20.6006405617449 41.1530612244898,20.6383776490228 43.3571428571429,20.6428235260414 45.5612244897959,20.5838261259317 47.765306122449,20.6162795659155 49.969387755102,20.6005102577024 52.1734693877551,20.6771997149721 54.3775510204082,20.6430305869377 56.5816326530612,20.7022696591826 58.7857142857143,20.685132272739 60.9897959183673,20.6856886295019 63.1938775510204,20.7107581283539 65.3979591836735,20.7603590351525 67.6020408163265,20.6879918481753 69.8061224489796,20.6034788837191 72.0102040816327,20.52087227328 74.2142857142857,20.2773942888518 76.4183673469388,20.0406480629296 78.6224489795918,19.4136858305335 80.8265306122449,19.4861934506069 83.030612244898,19.6717595500469 85.234693877551,19.8208611135963 87.4387755102041,20.0584559991812 89.6428571428571,20.0998336629456 91.8469387755102,20.1623385055465 94.0510204081633,20.2472468305832 96.2551020408163,20.2435478026905 98.4591836734694,20.2187258452619 100.663265306122,20.2034383264098 102.867346938775,20.1938358737864 105.071428571429,20.2612891420078 107.275510204082,20.1524013052414 109.479591836735,20.1607034903088 111.683673469388,20.2890985839448 113.887755102041,20.2547466541266 116.091836734694,20.2434905752017 118.295918367347,20.2479146130742 120.5,20.2606529370003 127.75,26.0136600976921" style="stroke:#7f3f00;fill:white;stroke-width:0.5;"/>
<polyline points="5.25,33.3748128072026 12.5,24.9325887805259 14.7040816326531,25.4872091361687 16.9081632653061,26.4705422524835 19.1122448979592,26.9096387857924 21.3163265306122,27.4297534461543 23.5204081632653,27.6449319409303 25.7244897959184,27.7848676296643 27.9285714285714,27.6727780458978 30.1326530612245,27.6969438161011 32.3367346938775,27.6616344798259 34.5408163265306,26.8785865672796 36.7448979591837,27.6502461521066 38.9489795918367,27.8327400589762 41.1530612244898,27.7430926832904 43.3571428571429,27.590033237099 45.5612244897959,27.8549648018861 47.765306122449,28.0091774348419 49.969387755102,28.1442813927534 52.1734693877551,28.0870669031281 54.3775510204082,28.1262064585473 56.5816326530612,28.0969923308369 58.7857142857143,28.0940656012894 60.9897959183673,28.0831971427051 63.1938775510204,27.9866923001517 65.3979591836735,28.0991135063341 67.6020408163265,28.0808548465189 69.8061224489796,28.044909064662 72.0102040816327,28.0871988268946 74.2142857142857,28.0009376291279 76.4183673469388,27.8663237118777 78.6224489795918,27.0370663627606 80.8265306122449,26.8631997647994 83.030612244898,27.1001733629128 85.234693877551,27.3768518726646 87.4387755102041,27.3495675918381 89.6428571428571,27.4813071554855 91.8469387755102,27.5662151061841 94.0510204081633,27.4901321530775 96.2551020408163,27.6029599194829 98.4591836734694,27.5884324644272 100.663265306122,27.6052826554753 102.867346938775,27.6169377322804 105.071428571429,27.5705392410152 107.275510204082,27.583850122673 109.479591836735,27.6466816911414 111.683673469388,27.6227213759004 113.887755102041,27.6342773776414 116.091836734694,27.6240740514358 118.295918367347,27.718082785032 120.5,27.6694289528201 127.75,33.3748128072026" style="stroke:#7f3f00;fill:white;stroke-width:0.5;"/>
<polyline points="5.25,40.7359655167132 12.5,31.4894996556144 14.7040816326531,32.0660328068815 16.9081632653061,32.7601258272392 19.1122448979592,34.2301119884824 21.3163265306122,34.5941702343626 23.5204081632653,34.7930149624853 25.7244897959184,34.8665431309164 27.9285714285714,34.8316625755924 30.1326530612245,34.8007699780084 32.3367346938775,34.7817764287376 34.5408163265306,34.8067120612279 36.7448979591837,34.8914946539256 38.9489795918367,34.8116910332262 41.1530612244898,34.6109632342099 43.3571428571429,34.9113099459786 45.5612244897959,35.5047715418774 47.765306122449,35.413631393747 49.969387755102,35.4028730324549 52.1734693877551,35.4060091510335 54.3775510204082,35.3934982199622 56.5816326530612,35.4386980053237 58.7857142857143,35.414021757229 60.9897959183673,35.4405615612274 63.1938775510204,35.4050194206022 65.3979591836735,35.4320086153643 67.6020408163265,35.4049900456554 69.8061224489796,35.4356784017253 72.0102040816327,35.4257973635322 74.2142857142857,35.4374391555262 76.4183673469388,35.4295817553245 78.6224489795918,35.3054132293413 80.8265306122449,34.8362825449674 83.030612244898,34.7443317622619 85.234693877551,34.592522214644 87.4387755102041,34.6444968436203 89.6428571428571,34.7606924452216 91.8469387755102,34.7915636836336 94.0510204081633,34.8530359514795 96.2551020408163,34.9213047403925 98.4591836734694,34.917342565153 100.663265306122,34.9397960946623 102.867346938775,34.964330354796 105.071428571429,34.9747998899737 107.275510204082,35.0297937432863 109.479591836735,35.0238639134338 111.683673469388,34.652637847446 113.887755102041,34.7860977825272 116.091836734694,34.7434608883128 118.295918367347,34.9150180323931 120.5,35.1774490127394 127.75,40.7359655167132" style="stroke:#7f3f00;fill:white;stroke-width:0.5;"/>
<polyline points="5.25,48.0971182262237 12.5,36.1559709060983 14.7040816326531,38.1744933612704 16.9081632653061,40.0588703850578 19.1122448979592,40.9162624873975 21.3163265306122,41.4874601057953 23.5204081632653,41.8467789682093 25.7244897959184,41.9816439598169 27.9285714285714,42.0073713487386 30.1326530612245,41.9239733081218 32.3367346938775,41.9239852386703 34.5408163265306,41.3551339287521 36.7448979591837,39.5223147215427 38.9489795918367,41.0191302638204 41.1530612244898,41.7253755133935 43.3571428571429,42.5012491817775 45.5612244897959,42.7574707962805 47.765306122449,42.7932324285026 49.969387755102,42.7506469706828 52.1734693877551,42.7083976708784 54.3775510204082,42.7773490679607 56.5816326530612,42.6629582979923 58.7857142857143,42.789475914072 60.9897959183673,42.8408367101552 63.1938775510204,42.7838524897362 65.3979591836735,42.7636719242287 67.6020408163265,42.7289624394591 69.8061224489796,42.7355200461356 72.0102040816327,42.7298728416902 74.2142857142857,42.7974681371115 76.4183673469388,42.856540982172 78.6224489795918,42.8489845113079 80.8265306122449,42.7626188474318 83.030612244898,42.6650325549726 85.234693877551,42.4245396153488 87.4387755102041,40.4545433551699 89.6428571428571,40.3811531966643 91.8469387755102,40.5249964449755 94.0510204081633,40.77662490699 96.2551020408163,40.8781600688517 98.4591836734694,41.1288026640351 100.663265306122,41.1769313799085 102.867346938775,41.544584952567 105.071428571429,42.2009856422317 107.275510204082,42.1716796761623 109.479591836735,42.4416375786181 111.683673469388,42.3916578354765 113.887755102041,42.398372164619 116.091836734694,42.3508427570249 118.295918367347,42.0854611366266 120.5,42.349837752805 127.75,48.0971182262237" style="stroke:#7f3f00;fill:white;stroke-width:0.5;"/>
<polyline points="5.25,55.4582709357342 12.5,41.3098346677817 14.7040816326531,41.4005561903091 16.9081632653061,42.574958722459 19.1122448979592,44.7978917789076 21.3163265306122,46.3732832040941 23.5204081632653,47.610897355096 25.7244897959184,48.3940468664492 27.9285714285714,48.6512894647666 30.1326530612245,48.1220037878725 32.3367346938775,47.4738278290873 34.5408163265306,46.4893158725302 36.7448979591837,45.8894407760948 38.9489795918367,48.0824557948657 41.1530612244898,48.722340610426 43.3571428571429,49.4311177114782 45.5612244897959,50.1883856589389 47.765306122449,50.1482256150271 49.969387755102,50.2763001738206 52.1734693877551,50.1996774977637 54.3775510204082,50.237763306946 56.5816326530612,50.0206921938255 58.7857142857143,50.1088988810617 60.9897959183673,50.1687889424598 63.1938775510204,50.1223654356636 65.3979591836735,50.11911940732 67.6020408163265,50.1823972601973 69.8061224489796,50.2044297451158 72.0102040816327,50.2235229131379 74.2142857142857,50.248225044865 76.4183673469388,50.2029240721628 78.6224489795918,50.2399497000863 80.8265306122449,50.138754898331 83.030612244898,50.1010010319634 85.234693877551,49.8961655773337 87.4387755102041,48.8705999841621 89.6428571428571,47.5128965851123 91.8469387755102,47.4131750951615 94.0510204081633,47.4742750674808 96.2551020408163,47.7676590210548 98.4591836734694,48.0844758548229 100.663265306122,47.9312236962765 102.867346938775,48.1279160746903 105.071428571429,48.4287158678573 107.275510204082,48.7891756098126 109.479591836735,49.2678625571878 111.683673469388,49.442375811276 113.887755102041,49.5787148407635 116.091836734694,49.5821338868388 118.295918367347,49.7525393249359 120.5,49.6938855295544 127.75,55.4582709357342" style="stroke:#7f3f00;fill:white;stroke-width:0.5;"/>
<polyline points="5.25,62.8194236452447 12.5,49.5065715780944 14.7040816326531,49.5259855857791 16.9081632653061,49.0696552877684 19.1122448979592,48.9908803316189 21.3163265306122,50.558723769319 23.5204081632653,53.56497646849 25.7244897959184,52.3020405031543 27.9285714285714,49.2324019814224 30.1326530612245,49.0424436884206 32.3367346938775,49.8895950579649 34.5408163265306,51.9899360787289 36.7448979591837,54.3580402231867 38.9489795918367,55.8273232393351 41.1530612244898,55.9944403982034 43.3571428571429,57.0410665913059 45.5612244897959,57.3528402808727 47.765306122449,57.46947626822 49.969387755102,57.5044344820374 52.1734693877551,57.5668810701299 54.3775510204082,57.3948602085744 56.5816326530612,57.5523493379638 58.7857142857143,57.555088033126 60.9897959183673,57.4602202694164 63.1938775510204,57.2957757723113 65.3979591836735,57.5060934984939 67.6020408163265,57.3260520210445 69.8061224489796,57.4277166046581 72.0102040816327,57.481604442214 74.2142857142857,57.5270176519392 76.4183673469388,57.5387389842285 78.6224489795918,57.5239037093924 80.8265306122449,57.4703628769345 83.030612244898,57.3667644673685 85.234693877551,57.1930366818927 87.4387755102041,56.9892870309244 89.6428571428571,56.7135218504912 91.8469387755102,56.3565602938337 94.0510204081633,55.7716326674558 96.2551020408163,55.6174836907859 98.4591836734694,55.7755696302738 100.663265306122,55.78826263551 102.867346938775,55.8946558241255 105.071428571429,55.929653704743 107.275510204082,55.7710237251922 109.479591836735,55.9486436276723 111.683673469388,56.0867916786351 113.887755102041,56.3868483468386 116.091836734694,56.5722368497385 118.295918367347,56.4689637867955 120.5,56.5591632934963 127.75,62.8194236452447" style="stroke:#7f3f00;fill:white;stroke-width:0.5;"/>
<polyline points="5.25,70.1805763547553 12.5,57.3022104579114 14.7040816326531,57.3738024581713 16.9081632653061,57.3703009765551 19.1122448979592,57.0731694265931 21.3163265306122,57.0225809480129 23.5204081632653,57.5935423228471 25.7244897959184,59.1915244056337 27.9285714285714,56.2404425191557 30.1326530612245,57.3779676795256 32.3367346938775,58.8219972396025 34.5408163265306,58.145563948112 36.7448979591837,58.8944301026863 38.9489795918367,58.2573915181452 41.1530612244898,60.7056998990964 43.3571428571429,63.0703760080205 45.5612244897959,64.209702480701 47.765306122449,64.4140939947913 49.969387755102,64.7761614959155 52.1734693877551,64.8052891867717 54.3775510204082,64.8057164403899 56.5816326530612,64.8934790518204 58.7857142857143,64.9420833731572 60.9897959183673,64.8852897268404 63.1938775510204,64.8792794595643 65.3979591836735,64.8554830121367 67.6020408163265,64.8933325326516 69.8061224489796,64.6969513909087 72.0102040816327,64.8708421559401 74.2142857142857,64.8542712840493 76.4183673469388,64.8142044160301 78.6224489795918,64.8961480553813 80.8265306122449,64.9126220606707 83.030612244898,64.910902876014 85.234693877551,64.7831109692933 87.4387755102041,64.4982605058348 89.6428571428571,63.4338998411656 91.8469387755102,63.1942644571769 94.0510204081633,63.2917516682397 96.2551020408163,62.9704499388207 98.4591836734694,62.5052438457341 100.663265306122,62.9430268939528 102.867346938775,62.803887251824 105.071428571429,63.0385531789192 107.275510204082,63.1561031019474 109.479591836735,63.4510602715423 111.683673469388,63.5184866435715 113.887755102041,63.6482503990173 116.091836734694,63.7871989131392 118.295918367347,63.9530893688608 120.5,63.9957960367795 127.75,70.1805763547553" style="stroke:#7f3f00;fill:white;stroke-width:0.5;"/>
<polyline points="5.25,77.5417290642658 12.5,65.1990450233157 14.7040816326531,64.6683292063158 16.9081632653061,64.0837100190107 19.1122448979592,63.4143179200728 21.3163265306122,62.708238781947 23.5204081632653,60.5027467894541 25.7244897959184,61.7261836318203 27.9285714285714,64.443268673887 30.1326530612245,60.4026785040994 32.3367346938775,64.1343649884934 34.5408163265306,63.4344718361415 36.7448979591837,63.3139051396887 38.9489795918367,65.020359006117 41.1530612244898,67.789511971237 43.3571428571429,69.7240168098545 45.5612244897959,70.7226584663606 47.765306122449,71.305454859582 49.969387755102,71.704518302922 52.1734693877551,72.0416547682801 54.3775510204082,72.1530258445182 56.5816326530612,72.1990168859041 58.7857142857143,72.2518970480864 60.9897959183673,72.2254577466657 63.1938775510204,72.2533251617144 65.3979591836735,72.2774772634645 67.6020408163265,72.2707491110895 69.8061224489796,72.2638195379925 72.0102040816327,72.3197773414611 74.2142857142857,72.2581372572946 76.4183673469388,72.2249776606815 78.6224489795918,72.2175503824064 80.8265306122449,72.2298234873687 83.030612244898,72.2890245378267 85.234693877551,72.1772134039445 87.4387755102041,71.7904408541807 89.6428571428571,70.9150801263106 91.8469387755102,69.5030830301531 94.0510204081633,69.6389662218708 96.2551020408163,69.4043232001828 98.4591836734694,69.7502803449307 100.663265306122,69.6681489814966 102.867346938775,69.7491956652865 105.071428571429,70.046255468935 107.275510204082,70.2221102811794 109.479591836735,70.2473667921697 111.683673469388,70.6684732140645 113.887755102041,70.7845842875602 116.091836734694,71.0118611593405 118.295918367347,71.1021751161074 120.5,71.227323929003 127.75,77.5417290642658" style="stroke:#7f3f00;fill:white;stroke-width:0.5;"/>
<polyline points="5.25,84.9028817737763 12.5,71.0306309149694 14.7040816326531,69.8514132573569 16.9081632653061,68.0156255527081 19.1122448979592,66.9357750846312 21.3163265306122,65.0916971815824 23.5204081632653,65.9674971537079 25.7244897959184,67.8853203603814 27.9285714285714,64.685686786904 30.1326530612245,67.7325709639765 32.3367346938775,65.3945583021878 34.5408163265306,66.9411188176718 36.7448979591837,66.9174796415719 38.9489795918367,70.5685159114814 41.1530612244898,72.7741334432002 43.3571428571429,75.0297764009794 45.5612244897959,76.6265220478712 47.765306122449,77.7336386059847 49.969387755102,78.4142657562727 52.1734693877551,78.8454091235791 54.3775510204082,79.0918129674779 56.5816326530612,79.2882901583321 58.7857142857143,79.4381283594559 60.9897959183673,79.5452695490002 63.1938775510204,79.5687016219576 65.3979591836735,79.621314802925 67.6020408163265,79.6999636160838 69.8061224489796,79.6226068969192 72.0102040816327,79.5541896238549 74.2142857142857,79.6755379149768 76.4183673469388,79.60784309781 78.6224489795918,79.6117017748192 80.8265306122449,79.6444002221586 83.030612244898,79.5926865627095 85.234693877551,79.3393198339116 87.4387755102041,79.0832216532462 89.6428571428571,78.8027796951012 91.8469387755102,77.9017032647446 94.0510204081633,76.6349734721804 96.2551020408163,76.590258214263 98.4591836734694,76.4086090088443 100.663265306122,76.3847922819336 102.867346938775,76.5682478634658 105.071428571429,77.2535424503294 107.275510204082,77.454215547128 109.479591836735,77.4116279570998 111.683673469388,77.6021020935271 113.887755102041,77.7117121636463 116.091836734694,77.7768894248105 118.295918367347,78.0682269098592 120.5,78.3520859403606 127.75,84.9028817737763" style="stroke:#7f3f00;fill:white;stroke-width:0.5;"/>
<polyline points="5.25,92.2640344832868 12.5,78.1632497942562 14.7040816326531,76.0355431031713 16.9081632653061,74.3443286332319 19.1122448979592,73.8290052698021 21.3163265306122,73.0944959686871 23.5204081632653,73.9359489883197 25.7244897959184,73.5274662070461 27.9285714285714,74.565570205774 30.1326530612245,72.0245456431477 32.3367346938775,70.1805763547553 34.5408163265306,73.8568276671148 36.7448979591837,78.2289711305078 38.9489795918367,78.4438236289987 41.1530612244898,78.0856359026964 43.3571428571429,77.9230728585943 45.5612244897959,80.7513096771256 47.765306122449,83.0416581814905 49.969387755102,84.2104566757317 52.1734693877551,85.2440429758911 54.3775510204082,86.1712010669504 56.5816326530612,86.3088888731836 58.7857142857143,86.5081731410571 60.9897959183673,86.6028960307809 63.1938775510204,86.7249107826335 65.3979591836735,86.7763171369848 67.6020408163265,86.7826965269585 69.8061224489796,86.7638595166355 72.0102040816327,86.8246364468362 74.2142857142857,86.8163838343341 76.4183673469388,86.871059361794 78.6224489795918,86.7724143710578 80.8265306122449,86.7633828258375 83.030612244898,86.934935284547 85.234693877551,86.9314006035609 87.4387755102041,86.7846341768861 89.6428571428571,86.5003628911444 91.8469387755102,86.0812567466405 94.0510204081633,84.6328417768511 96.2551020408163,83.1997396516633 98.4591836734694,83.8118286759842 100.663265306122,82.9022876307088 102.867346938775,83.3730715870501 105.071428571429,83.4145947227075 107.275510204082,83.5658237075019 109.479591836735,84.2390143078778 111.683673469388,84.2914630670488 113.887755102041,84.7329293352987 116.091836734694,84.7638190034271 118.295918367347,84.9559296166519 120.5,85.3308080909171 127.75,92.2640344832868" style="stroke:#7f3f00;fill:white;stroke-width:0.5;"/>
<polyline points="5.25,99.6251871927974 12.5,86.9904151904812 14.7040816326531,86.6285767192415 16.9081632653061,85.1693504451239 19.1122448979592,82.6716374063529 21.3163265306122,81.1415334037259 23.5204081632653,80.6295936996353 25.7244897959184,80.0745357881202 27.9285714285714,80.1390447120518 30.1326530612245,79.2946039380288 32.3367346938775,78.6350366117692 34.5408163265306,77.649651186284 36.7448979591837,78.779433063085 38.9489795918367,83.0123571420223 41.1530612244898,84.1757852244339 43.3571428571429,85.7259267571201 45.5612244897959,88.4603210927182 47.765306122449,90.5203117012968 49.969387755102,91.587216419982 52.1734693877551,92.5182041836381 54.3775510204082,93.0225976266474 56.5816326530612,93.327647021385 58.7857142857143,93.5017667906146 60.9897959183673,93.6415415028996 63.1938775510204,93.7387514798717 65.3979591836735,93.9250054715986 67.6020408163265,93.884402248693 69.8061224489796,93.855113310883 72.0102040816327,93.880437668804 74.2142857142857,93.8033254915212 76.4183673469388,91.9943450882422 78.6224489795918,93.172213120837 80.8265306122449,94.0698350348669 83.030612244898,94.0459049250385 85.234693877551,94.1949974369002 87.4387755102041,94.1042528104172 89.6428571428571,94.2873560317229 91.8469387755102,94.1441651266969 94.0510204081633,94.1419197057001 96.2551020408163,94.0850288605722 98.4591836734694,92.9883758532351 100.663265306122,93.1366771419976 102.867346938775,93.1155187867486 105.071428571429,93.0413336047972 107.275510204082,92.8185417793833 109.479591836735,91.7756106421408 111.683673469388,91.2366272749938 113.887755102041,91.5371278835609 116.091836734694,91.5971116237183 118.295918367347,91.866931090866 120.5,92.1502739760058 127.75,99.6251871927974" style="stroke:#7f3f00;fill:white;stroke-width:0.5;"/>
<polyline points="5.25,106.986339902308 12.5,95.051922852041 14.7040816326531,94.6860110487539 16.9081632653061,93.3576031166174 19.1122448979592,91.6522172672974 21.3163265306122,90.3351322440084 23.5204081632653,89.2763926409625 25.7244897959184,89.6513048683687 27.9285714285714,88.3412032123776 30.1326530612245,88.3773270721417 32.3367346938775,87.661393511653 34.5408163265306,86.5256022212421 36.7448979591837,87.5933371746154 38.9489795918367,87.7875824438542 41.1530612244898,90.596068300689 43.3571428571429,94.0937193514988 45.5612244897959,96.3788522118257 47.765306122449,97.9025345488849 49.969387755102,98.9987086023802 52.1734693877551,99.6323752870179 54.3775510204082,100.126948515743 56.5816326530612,100.431918395543 58.7857142857143,100.672304839371 60.9897959183673,100.816580712992 63.1938775510204,100.897597134629 65.3979591836735,101.032952620515 67.6020408163265,101.116935121718 69.8061224489796,101.081532132761 72.0102040816327,101.001179426094 74.2142857142857,100.885310934787 76.4183673469388,99.9889584241432 78.6224489795918,99.7596629713999 80.8265306122449,99.9081599194087 83.030612244898,99.1770629707107 85.234693877551,97.2200034125711 87.4387755102041,98.4760249833554 89.6428571428571,100.253014938144 91.8469387755102,100.850709966726 94.0510204081633,101.246576003945 96.2551020408163,101.617552956087 98.4591836734694,101.835418966777 100.663265306122,101.814454286171 102.867346938775,101.656112082281 105.071428571429,101.209724462996 107.275510204082,100.235381050756 109.479591836735,99.4297342060037 111.683673469388,98.9470047492796 113.887755102041,98.9591197514114 116.091836734694,98.9330121476282 118.295918367347,98.909184256884 120.5,99.0972825197637 127.75,106.986339902308" style="stroke:#7f3f00;fill:white;stroke-width:0.5;"/>
<polyline points="5.25,114.347492611818 12.5,98.014829339355 14.7040816326531,98.2874267285935 16.9081632653061,98.1777549103554 19.1122448979592,98.0662258089887 21.3163265306122,97.6388750305965 23.5204081632653,96.8856974953842 25.7244897959184,96.5781818074724 27.9285714285714,95.8042037877326 30.1326530612245,95.0054154049205 32.3367346938775,95.8623018018755 34.5408163265306,98.2618902573217 36.7448979591837,96.776126273919 38.9489795918367,95.8004104239368 41.1530612244898,98.9501324610317 43.3571428571429,101.54813267747 45.5612244897959,103.440390685206 47.765306122449,104.053012102641 49.969387755102,105.781004467942 52.1734693877551,106.42875334244 54.3775510204082,107.101435862445 56.5816326530612,107.574542390958 58.7857142857143,108.003169275137 60.9897959183673,108.323586619723 63.1938775510204,108.271177295485 65.3979591836735,108.354714434321 67.6020408163265,108.24959723434 69.8061224489796,108.20957937035 72.0102040816327,107.118403323476 74.2142857142857,107.686450206783 76.4183673469388,107.140561079689 78.6224489795918,106.779940506305 80.8265306122449,107.294503465543 83.030612244898,107.45907318905 85.234693877551,106.062489557432 87.4387755102041,106.009543087963 89.6428571428571,104.263954696502 91.8469387755102,103.45474574583 94.0510204081633,105.492645762108 96.2551020408163,108.492492778508 98.4591836734694,109.092786197698 100.663265306122,109.146271565051 102.867346938775,109.282392042459 105.071428571429,108.68647559537 107.275510204082,107.2264649895 109.479591836735,106.040536369587 111.683673469388,106.001334853283 113.887755102041,106.84227507821 116.091836734694,106.717371564196 118.295918367347,107.00398795193 120.5,106.954922019802 127.75,114.347492611818" style="stroke:#7f3f00;fill:white;stroke-width:0.5;"/>
<polyline points="5.25,121.708645321329 12.5,106.406744800999 14.7040816326531,106.037058663547 16.9081632653061,106.036001416017 19.1122448979592,106.201779659669 21.3163265306122,106.630960167605 23.5204081632653,105.088444726532 25.7244897959184,104.225467870699 27.9285714285714,103.572962142538 30.1326530612245,103.334891413006 32.3367346938775,104.289067092071 34.5408163265306,105.343020600566 36.7448979591837,107.985013139346 38.9489795918367,105.486378088366 41.1530612244898,102.237260634035 43.3571428571429,104.598625939528 45.5612244897959,107.127461693287 47.765306122449,109.813375755775 49.969387755102,109.387177932492 52.1734693877551,112.13332178709 54.3775510204082,114.231564436851 56.5816326530612,115.158892193809 58.7857142857143,115.55993137988 60.9897959183673,115.788776065486 63.1938775510204,115.890833805116 65.3979591836735,115.82375480901 67.6020408163265,115.467626592588 69.8061224489796,114.803073522085 72.0102040816327,114.062736473674 74.2142857142857,114.091927460059 76.4183673469388,113.144763964141 78.6224489795918,112.039098131045 80.8265306122449,113.571018332653 83.030612244898,114.439378366066 85.234693877551,114.546324277638 87.4387755102041,115.519861418206 89.6428571428571,115.148428447638 91.8469387755102,114.566095282201 94.0510204081633,115.043859169846 96.2551020408163,115.361053567467 98.4591836734694,116.63247537015 100.663265306122,116.708645321329 102.867346938775,116.652200687747 105.071428571429,116.678995534074 107.275510204082,116.581917502614 109.479591836735,116.115439115222 111.683673469388,114.727712767957 113.887755102041,114.795511442043 116.091836734694,113.737948213301 118.295918367347,114.29846498536 120.5,114.608480477655 127.75,121.708645321329" style="stroke:#7f3f00;fill:white;stroke-width:0.5;"/>
</g>
</svg>